<svg width="500" height="87" viewBox="0 0 500 87" fill="none" xmlns="http://www.w3.org/2000/svg">
<g clip-path="url(#clip0_1364_13)">
<path d="M120.876 85.365H101.574L109.278 42.0183L88.1316 65.7865H82.6605L70.0586 41.6505L62.313 85.365H43.0105L56.2067 10.6885H72.0462L88.7463 41.1191L116.163 10.6885H134.072L120.876 85.365ZM104.012 83.3214H119.155L131.634 12.7322H117.085L88.357 44.6342L70.8577 12.7322H57.9484L45.4694 83.3214H60.6122L69.0955 35.3763L83.9105 63.7428H87.2095L112.557 35.2333L104.033 83.3214H104.012Z" fill="#D89510"/>
<path d="M183.558 85.3651H129.708L142.904 10.6885H196.303L193.312 27.8351H158.866L156.817 39.3615H186.324L183.435 55.6293H154.051L151.777 68.2389H186.529L183.538 85.3855L183.558 85.3651ZM132.146 83.3214H181.816L184.091 70.2622H149.318L152.309 53.5652H181.693L183.845 41.3848H154.338L157.125 25.771H191.549L193.824 12.7118H144.584L132.105 83.3009L132.146 83.3214Z" fill="#D89510"/>
<path d="M227.819 85.365H208.844L219.049 27.7125H198.762L201.754 10.6885H261.424L258.309 27.7125H238.023L227.819 85.365ZM211.303 83.3214H226.118L236.322 25.6688H256.608L258.985 12.7322H203.496L201.221 25.6688H221.507L211.303 83.3214Z" fill="#D89510"/>
<path d="M292.099 87C284.865 87 278.349 85.4468 272.735 82.3813C267.1 79.3157 262.674 75.024 259.559 69.6286C256.445 64.2537 254.867 58.0817 254.867 51.2967C254.867 44.9612 256.629 38.4419 260.092 31.902C263.555 25.3622 268.76 19.8443 275.583 15.4912C282.407 11.1381 290.685 8.93094 300.213 8.93094C307.447 8.93094 313.942 10.4637 319.516 13.4884C325.11 16.513 329.515 20.7844 332.63 26.1797C335.745 31.5546 337.322 37.7266 337.322 44.5116C337.322 50.8471 335.56 57.3869 332.097 63.9063C328.634 70.4461 323.429 75.9845 316.606 80.358C309.782 84.7519 301.525 86.9796 292.099 86.9796V87ZM300.213 10.9951C291.095 10.9951 283.185 13.1001 276.69 17.2283C270.173 21.377 265.215 26.6293 261.916 32.8626C258.617 39.0958 256.936 45.3087 256.936 51.3171C256.936 57.7548 258.412 63.5793 261.342 68.6272C264.272 73.6956 268.432 77.7216 273.718 80.6032C279.026 83.5053 285.193 84.9563 292.078 84.9563C301.115 84.9563 309.004 82.8309 315.479 78.6617C321.995 74.4722 326.954 69.1994 330.253 62.9662C333.552 56.7329 335.232 50.5201 335.232 44.5116C335.232 38.0944 333.757 32.2699 330.827 27.2016C327.896 22.1536 323.757 18.1276 318.512 15.2868C313.245 12.4257 307.078 10.9746 300.193 10.9746L300.213 10.9951ZM293.861 71.4679C289.681 71.4679 285.911 70.5687 282.611 68.7703C279.312 66.9718 276.71 64.4989 274.886 61.3925C273.042 58.2861 272.12 54.7505 272.12 50.8675C272.12 46.1875 273.247 41.7731 275.481 37.747C277.714 33.7005 280.87 30.4306 284.845 28.019C288.82 25.587 293.39 24.3608 298.369 24.3608C302.611 24.3608 306.442 25.26 309.762 27.0585C313.102 28.8569 315.725 31.3298 317.549 34.4362C319.393 37.5426 320.315 41.0782 320.315 44.9612C320.315 49.6413 319.167 54.0557 316.893 58.1022C314.618 62.1487 311.442 65.4186 307.426 67.8302C303.41 70.2417 298.84 71.4679 293.841 71.4679H293.861ZM298.349 26.4045C293.738 26.4045 289.537 27.5285 285.89 29.7562C282.222 31.9838 279.312 35.0085 277.263 38.728C275.194 42.4475 274.149 46.5349 274.149 50.8675C274.149 54.3827 274.989 57.5708 276.628 60.3502C278.288 63.1297 280.624 65.3573 283.595 66.9718C286.566 68.5863 290.029 69.4242 293.861 69.4242C298.471 69.4242 302.693 68.3002 306.381 66.0726C310.09 63.845 313.02 60.8203 315.11 57.1008C317.2 53.3813 318.266 49.2939 318.266 44.9612C318.266 41.4461 317.426 38.2579 315.786 35.4785C314.147 32.6991 311.791 30.4715 308.778 28.8569C305.766 27.2424 302.262 26.4045 298.349 26.4045Z" fill="#D89510"/>
<path d="M367.26 85.365H336.421L349.617 10.6885H379.984C386.91 10.6885 392.996 11.9147 398.078 14.3467C403.201 16.7991 407.196 20.3143 409.963 24.79C412.729 29.2861 414.122 34.6202 414.122 40.6899C414.122 47.3728 412.483 54.2192 409.246 61.0451C405.988 67.8915 400.783 73.716 393.754 78.3552C386.706 82.9944 377.792 85.365 367.26 85.365ZM338.88 83.3214H367.26C377.382 83.3214 385.927 81.0733 392.627 76.6589C399.348 72.2241 404.307 66.6857 407.401 60.1663C410.496 53.6265 412.073 47.0662 412.073 40.6899C412.073 35.0085 410.782 30.0218 408.221 25.8527C405.66 21.704 401.951 18.4545 397.197 16.186C392.381 13.8971 386.603 12.7322 379.984 12.7322H351.338L338.859 83.3214H338.88ZM368.346 70.2622H356.051L363.879 25.6688H377.792C384.185 25.6688 389.021 27.222 392.156 30.2875C395.312 33.3531 396.91 37.7061 396.91 43.2241C396.91 48.0472 395.803 52.5433 393.611 56.6103C391.398 60.6977 388.099 64.0289 383.796 66.5222C379.493 69.0155 374.308 70.2622 368.366 70.2622H368.346ZM358.489 68.2185H368.346C373.899 68.2185 378.755 67.0536 382.751 64.7442C386.726 62.4552 389.779 59.3897 391.787 55.6293C393.816 51.8689 394.84 47.6793 394.84 43.2037C394.84 38.2579 393.447 34.4158 390.701 31.7385C387.955 29.0613 383.591 27.7125 377.771 27.7125H365.579L358.469 68.2185H358.489Z" fill="#D89510"/>
<path d="M454.777 87C447.543 87 441.027 85.4468 435.413 82.3813C429.778 79.3157 425.351 75.024 422.237 69.6286C419.122 64.2537 417.544 58.0817 417.544 51.2967C417.544 44.9612 419.307 38.4419 422.77 31.902C426.233 25.3622 431.458 19.8443 438.261 15.4912C445.084 11.1381 453.363 8.93094 462.891 8.93094C470.124 8.93094 476.62 10.4637 482.193 13.4884C487.787 16.513 492.193 20.7844 495.308 26.1797C498.422 31.5751 500 37.7266 500 44.5116C500 50.8471 498.238 57.3869 494.775 63.9063C491.312 70.4461 486.107 75.9845 479.284 80.358C472.46 84.7519 464.202 86.9796 454.756 86.9796L454.777 87ZM462.891 10.9951C453.772 10.9951 445.863 13.1001 439.367 17.2283C432.872 21.377 427.892 26.6293 424.593 32.8626C421.294 39.0958 419.614 45.3087 419.614 51.2967C419.614 57.7139 421.089 63.5384 424.02 68.6068C426.95 73.6751 431.109 77.7012 436.396 80.5828C441.703 83.4848 447.871 84.9359 454.756 84.9359C463.793 84.9359 471.682 82.8104 478.157 78.6413C484.673 74.4517 489.632 69.179 492.931 62.9457C496.23 56.7125 497.91 50.4996 497.91 44.4912C497.91 38.074 496.435 32.2495 493.484 27.1811C490.554 22.1332 486.415 18.1071 481.169 15.2664C475.903 12.4052 469.735 10.9542 462.85 10.9542L462.891 10.9951ZM456.518 71.4679C452.338 71.4679 448.568 70.5687 445.269 68.7703C441.97 66.9718 439.367 64.4989 437.523 61.3925C435.679 58.2861 434.757 54.7505 434.757 50.8675C434.757 46.1875 435.884 41.7731 438.117 37.747C440.351 33.7005 443.506 30.4306 447.482 28.019C451.457 25.587 456.026 24.3608 461.006 24.3608C465.247 24.3608 469.079 25.26 472.399 27.0585C475.739 28.8569 478.362 31.3298 480.185 34.4362C482.029 37.5426 482.952 41.0782 482.952 44.9612C482.952 49.6413 481.804 54.0557 479.53 58.1022C477.255 62.1487 474.079 65.4186 470.063 67.8302C466.047 70.2417 461.477 71.4679 456.477 71.4679H456.518ZM461.026 26.4045C456.416 26.4045 452.215 27.5285 448.568 29.7562C444.9 31.9838 441.99 35.0085 439.941 38.728C437.871 42.4475 436.826 46.5349 436.826 50.8675C436.826 54.3827 437.667 57.5708 439.306 60.3502C440.966 63.1297 443.302 65.3573 446.252 66.9718C449.223 68.5863 452.686 69.4242 456.518 69.4242C461.129 69.4242 465.35 68.3002 469.038 66.0726C472.747 63.845 475.677 60.8203 477.767 57.1008C479.857 53.3813 480.923 49.2939 480.923 44.9612C480.923 41.4461 480.083 38.2579 478.444 35.4785C476.784 32.6991 474.427 30.4715 471.436 28.8569C468.424 27.2424 464.92 26.4045 461.006 26.4045H461.026Z" fill="#D89510"/>
<path d="M4.79489 12.6709H22.4581L22.0893 14.8781H6.803L4.9998 24.9331H18.3189L17.9501 27.0176H4.67194L2.78677 37.6448H18.237L17.8271 39.8111H0L4.79489 12.6709Z" fill="#D89510"/>
<path d="M27.2939 12.6709H29.7118L25.2858 37.6448H39.2606L38.8918 39.8111H22.499L27.2939 12.6709Z" fill="#D89510"/>
<path d="M367.321 85.365H336.482L349.678 10.6885H380.046C386.972 10.6885 393.058 11.9147 398.139 14.3467C403.262 16.7991 407.278 20.3143 410.024 24.79C412.791 29.2657 414.184 34.6202 414.184 40.6899C414.184 47.3728 412.545 54.2192 409.307 61.0247C406.069 67.871 400.844 73.6956 393.816 78.3347C386.767 82.9739 377.853 85.3446 367.321 85.3446V85.365ZM338.921 83.3214H367.301C377.423 83.3214 385.968 81.0733 392.668 76.6589C399.389 72.2241 404.348 66.6857 407.442 60.1663C410.537 53.6265 412.114 47.0867 412.114 40.6899C412.114 35.0085 410.823 30.0218 408.262 25.8527C405.701 21.704 401.992 18.4545 397.238 16.186C392.423 13.8971 386.644 12.7322 380.025 12.7322H351.379L338.9 83.3214H338.921ZM368.407 70.2622H356.112L363.92 25.6688H377.833C384.226 25.6688 389.062 27.222 392.197 30.2875C395.353 33.3531 396.951 37.7061 396.951 43.2241C396.951 48.0472 395.844 52.5433 393.652 56.6103C391.439 60.6977 388.14 64.0289 383.837 66.5222C379.534 69.0155 374.349 70.2622 368.407 70.2622ZM358.551 68.2185H368.407C373.981 68.2185 378.817 67.0536 382.812 64.7442C386.788 62.4552 389.841 59.3897 391.849 55.6293C393.877 51.8689 394.902 47.6793 394.902 43.2037C394.902 38.2579 393.509 34.4158 390.763 31.7385C388.017 29.0613 383.673 27.7125 377.833 27.7125H365.641L358.551 68.2185Z" fill="#D89510"/>
<path d="M370.046 77.6808H346.502L356.522 18.3319H379.636C384.902 18.3319 389.533 19.3129 393.406 21.2544C397.32 23.2163 400.373 26.0162 402.463 29.5927C404.553 33.1691 405.619 37.42 405.619 42.2431C405.619 47.5567 404.369 52.9725 401.93 58.3679C399.471 63.8041 395.517 68.4433 390.168 72.1219C384.82 75.821 378.038 77.7012 370.026 77.7012L370.046 77.6808ZM348.92 75.6371H370.026C377.607 75.6371 383.98 73.8795 389 70.4257C394.041 66.9514 397.75 62.5983 400.066 57.5095C402.402 52.3798 403.57 47.2297 403.57 42.2227C403.57 37.7674 402.606 33.864 400.701 30.6145C398.795 27.3855 396.029 24.8513 392.484 23.0733C388.898 21.2748 384.574 20.3756 379.636 20.3756H358.264L348.941 75.6371H348.92Z" fill="#D89510"/>
<path d="M179.275 77.8443H140.814L139.81 76.6589L149.789 18.6998L150.793 17.8619H188.619V19.9056H151.674L142.043 75.8006H179.275V77.8443Z" fill="#D89510"/>
<path d="M179.275 46.494H146.551V48.5377H179.275V46.494Z" fill="#D89510"/>
<path d="M252.695 17.8619H207.676V19.9056H252.695V17.8619Z" fill="#D89510"/>
<path d="M229.152 18.6796L218.425 78.2608L220.442 78.622L231.169 19.0408L229.152 18.6796Z" fill="#D89510"/>
<path d="M292.795 79.4588C286.976 79.4588 281.73 78.2121 277.202 75.7393C272.673 73.2664 269.087 69.8125 266.567 65.4595C264.067 61.1269 262.776 56.1402 262.776 50.6836C262.776 45.5744 264.19 40.3221 266.977 35.0493C269.764 29.7766 273.964 25.3214 279.456 21.8266C284.947 18.3115 291.627 16.5335 299.291 16.5335C305.11 16.5335 310.356 17.7597 314.844 20.2121C319.352 22.6646 322.917 26.098 325.437 30.451C327.937 34.7837 329.208 39.7703 329.208 45.2269C329.208 50.3362 327.794 55.5884 325.007 60.8612C322.22 66.1339 318.02 70.5892 312.528 74.1247C307.037 77.6603 300.398 79.4588 292.795 79.4588ZM299.291 18.5976C292.037 18.5976 285.726 20.2734 280.562 23.5638C275.378 26.8746 271.423 31.0641 268.8 36.0099C266.178 40.976 264.825 45.9218 264.825 50.6836C264.825 55.7928 266.014 60.432 268.329 64.4376C270.645 68.4637 273.964 71.6519 278.165 73.9408C282.386 76.2502 287.304 77.4151 292.775 77.4151C299.967 77.4151 306.237 75.7393 311.401 72.408C316.585 69.0768 320.54 64.8668 323.163 59.9211C325.786 54.9549 327.118 50.0092 327.118 45.2474C327.118 40.1381 325.929 35.4989 323.614 31.4729C321.298 27.4672 317.999 24.2791 313.819 22.0106C309.639 19.7421 304.721 18.5772 299.25 18.5772L299.291 18.5976Z" fill="#D89510"/>
<path d="M456.006 79.4588C450.186 79.4588 444.941 78.2121 440.412 75.7393C435.884 73.2664 432.298 69.8125 429.798 65.4595C427.298 61.1269 426.007 56.1402 426.007 50.6836C426.007 45.5744 427.421 40.3221 430.208 35.0493C432.995 29.7766 437.195 25.3214 442.687 21.8266C448.178 18.3115 454.858 16.5335 462.502 16.5335C468.321 16.5335 473.567 17.7597 478.054 20.2121C482.562 22.6646 486.128 26.098 488.648 30.451C491.148 34.7837 492.418 39.7703 492.418 45.2269C492.418 50.3362 491.004 55.5884 488.218 60.8612C485.431 66.1339 481.23 70.5892 475.739 74.1247C470.247 77.6603 463.608 79.4588 456.006 79.4588ZM462.502 18.5976C455.248 18.5976 448.936 20.2734 443.773 23.5638C438.589 26.8746 434.634 31.0641 432.011 36.0099C429.388 40.976 428.036 45.9218 428.036 50.6836C428.036 55.7928 429.224 60.432 431.54 64.4376C433.855 68.4637 437.175 71.6519 441.375 73.9408C445.596 76.2502 450.514 77.4151 455.985 77.4151C463.178 77.4151 469.448 75.7393 474.612 72.408C479.796 69.0768 483.751 64.8668 486.373 59.9211C488.996 54.9549 490.328 50.0296 490.328 45.2474C490.328 40.1381 489.14 35.4989 486.824 31.4729C484.509 27.4468 481.21 24.2791 477.03 22.0106C472.849 19.7421 467.932 18.5772 462.461 18.5772L462.502 18.5976Z" fill="#D89510"/>
<path d="M54.3626 79.3566L52.334 78.9887L63.1122 20.7435L64.1163 19.9056H67.6367L68.5178 20.3961L87.1071 53.2995L116.561 20.1889L117.319 19.8619H122.925L123.929 21.0472L113.581 79.3566L111.553 79.0092L121.716 21.9056H117.79L87.7014 55.6906L86.0621 55.5271L67.0629 21.9493H64.9769L54.3626 79.3566Z" fill="#D89510"/>
<path d="M190.464 0H154.502V2.04369H190.464V0Z" fill="#D89510"/>
</g>
<defs>
<clipPath id="clip0_1364_13">
<rect width="500" height="87" fill="white"/>
</clipPath>
</defs>
</svg>
