<?xml version="1.0" encoding="UTF-8"?>
<svg id="Layer_1" data-name="Layer 1" xmlns="http://www.w3.org/2000/svg" viewBox="0 0 936.44 1514.62">
  <defs>
    <style>
      .cls-1 {
        fill: #00515f;
      }

      .cls-2 {
        fill: #feeeea;
      }
    </style>
  </defs>
  <path class="cls-2" d="m923.93,1513.32l-451.32-290.38c-2.67-1.72-6.11-1.72-8.78,0L12.5,1513.32c-5.4,3.47-12.5-.4-12.5-6.82V8.11C0,3.63,3.63,0,8.11,0h920.21c4.48,0,8.11,3.63,8.11,8.11v1498.38c0,6.42-7.1,10.3-12.5,6.82Z"/>
  <g>
    <g>
      <path class="cls-1" d="m642.64,316.43c4.26,0,7.13-4.39,5.4-8.28-9.68-21.81-23.41-41.88-40.79-59.26-31.31-31.31-71.32-50.75-114.59-56.08-3.5-.43-6.58,2.34-6.58,5.86v24.19c0,2.94,2.17,5.42,5.09,5.84,52.2,7.49,96.36,40.14,119.82,85.22.8,1.53,2.37,2.51,4.09,2.51h0s27.54,0,27.54,0Z"/>
      <path class="cls-1" d="m491.99,370.06c-3.26,0-5.9,2.64-5.9,5.9v23.95c0,3.26,2.64,5.9,5.9,5.9h129.37c3.62,0,6.39,3.23,5.83,6.81-10.76,69.55-66.22,124.53-136.01,134.55-2.92.42-5.1,2.89-5.1,5.84v24.19c0,3.53,3.08,6.29,6.58,5.86,43.26-5.33,83.27-24.77,114.59-56.08,37.14-37.14,57.59-86.52,57.59-139.04,0-4.15-.13-8.27-.39-12.38-.19-3.1-2.79-5.5-5.89-5.5h-166.58Z"/>
      <path class="cls-1" d="m271.59,388.18c.06,52.76,21.47,103.47,59.18,140.36,31.05,30.37,70.41,49.24,112.91,54.5,3.54.44,6.67-2.29,6.67-5.85v-24.19c0-2.95-2.18-5.42-5.1-5.84-69.79-10.02-125.25-65-136.01-134.55-.55-3.58,2.22-6.81,5.83-6.81h58.36c3.26,0,5.9-2.64,5.9-5.9v-23.95c0-3.26-2.64-5.9-5.9-5.9h-58.36c-3.62,0-6.39-3.23-5.83-6.81,10.76-69.55,66.22-124.53,136.01-134.55,2.92-.42,5.1-2.89,5.1-5.84v-24.19c0-3.53-3.08-6.29-6.58-5.86-43.26,5.33-83.27,24.77-114.59,56.08-37.2,37.2-57.66,86.67-57.59,139.29Z"/>
    </g>
    <g>
      <path class="cls-1" d="m77.82,777.1v-95.78h14.64l41.87,69.92h-7.66l41.18-69.92h14.64l.14,95.78h-16.83l-.14-69.37h3.56l-35.03,58.43h-7.94l-35.57-58.43h4.1v69.37h-16.97Z"/>
      <path class="cls-1" d="m188.1,777.1l43.1-95.78h17.51l43.24,95.78h-18.61l-37.08-86.34h7.11l-36.94,86.34h-18.33Zm19.84-22.17l4.79-13.96h51.72l4.79,13.96h-61.3Z"/>
      <path class="cls-1" d="m297.28,777.1v-95.78h39.41c8.48,0,15.76,1.37,21.82,4.11,6.07,2.74,10.74,6.66,14.02,11.77,3.28,5.11,4.93,11.17,4.93,18.2s-1.64,13.07-4.93,18.13c-3.28,5.06-7.96,8.94-14.02,11.63-6.07,2.69-13.34,4.04-21.82,4.04h-29.55l7.94-8.07v35.98h-17.79Zm17.79-34.07l-7.94-8.48h28.73c7.84,0,13.75-1.69,17.72-5.06,3.97-3.37,5.95-8.07,5.95-14.09s-1.98-10.81-5.95-14.09c-3.97-3.28-9.88-4.93-17.72-4.93h-28.73l7.94-8.76v55.41Zm44.88,34.07l-24.22-34.75h19.02l24.35,34.75h-19.15Z"/>
      <path class="cls-1" d="m387.34,777.1v-95.78h17.79v95.78h-17.79Zm15.87-22.58l-.96-21.07,50.21-52.13h19.98l-41.73,44.33-9.85,10.81-17.65,18.06Zm50.9,22.58l-36.67-43.65,11.77-13,45.7,56.64h-20.8Z"/>
      <path class="cls-1" d="m498.03,762.18h54.04v14.91h-71.83v-95.78h69.92v14.91h-52.13v65.95Zm-1.37-41.05h47.62v14.64h-47.62v-14.64Z"/>
      <path class="cls-1" d="m589.18,777.1v-80.73h-31.74v-15.05h81.27v15.05h-31.74v80.73h-17.79Z"/>
      <path class="cls-1" d="m645.27,777.1v-95.78h17.79v95.78h-17.79Z"/>
      <path class="cls-1" d="m674.29,777.1v-95.78h14.64l60.07,73.75h-7.25v-73.75h17.65v95.78h-14.64l-60.07-73.75h7.25v73.75h-17.65Z"/>
      <path class="cls-1" d="m819.9,778.46c-7.48,0-14.35-1.21-20.59-3.63-6.25-2.41-11.7-5.84-16.35-10.26-4.65-4.42-8.26-9.65-10.81-15.67-2.55-6.02-3.83-12.59-3.83-19.7s1.28-13.68,3.83-19.7c2.55-6.02,6.18-11.24,10.88-15.67,4.7-4.42,10.19-7.84,16.49-10.26,6.29-2.42,13.18-3.63,20.66-3.63,8.12,0,15.44,1.32,21.96,3.97,6.52,2.65,12.02,6.52,16.49,11.63l-11.22,10.95c-3.74-3.74-7.78-6.5-12.11-8.28-4.33-1.78-9.1-2.67-14.3-2.67s-9.67.82-13.96,2.46c-4.29,1.64-7.98,3.97-11.08,6.98-3.1,3.01-5.5,6.57-7.18,10.67-1.69,4.1-2.53,8.62-2.53,13.55s.84,9.3,2.53,13.41c1.69,4.1,4.08,7.68,7.18,10.74,3.1,3.06,6.75,5.4,10.95,7.05,4.2,1.64,8.85,2.46,13.96,2.46,4.74,0,9.32-.75,13.75-2.26,4.42-1.5,8.64-4.04,12.66-7.59l10.13,13.27c-5.02,4.02-10.83,7.05-17.44,9.1-6.61,2.05-13.3,3.08-20.04,3.08Zm20.66-14.5v-35.85h16.83v38.17l-16.83-2.33Z"/>
    </g>
  </g>
  <g>
    <path class="cls-1" d="m255.82,1063.44c-6.48,0-12.5-1.06-18.06-3.18-5.56-2.12-10.38-5.14-14.46-9.06-4.08-3.92-7.26-8.52-9.54-13.8-2.28-5.28-3.42-11.08-3.42-17.4s1.14-12.12,3.42-17.4c2.28-5.28,5.48-9.88,9.6-13.8,4.12-3.92,8.94-6.94,14.46-9.06,5.52-2.12,11.56-3.18,18.12-3.18,7.28,0,13.86,1.26,19.74,3.78,5.88,2.52,10.82,6.22,14.82,11.1l-12.48,11.52c-2.88-3.28-6.08-5.74-9.6-7.38-3.52-1.64-7.36-2.46-11.52-2.46-3.92,0-7.52.64-10.8,1.92-3.28,1.28-6.12,3.12-8.52,5.52-2.4,2.4-4.26,5.24-5.58,8.52-1.32,3.28-1.98,6.92-1.98,10.92s.66,7.64,1.98,10.92c1.32,3.28,3.18,6.12,5.58,8.52,2.4,2.4,5.24,4.24,8.52,5.52,3.28,1.28,6.88,1.92,10.8,1.92,4.16,0,8-.82,11.52-2.46,3.52-1.64,6.72-4.14,9.6-7.5l12.48,11.52c-4,4.88-8.94,8.6-14.82,11.16-5.88,2.56-12.5,3.84-19.86,3.84Z"/>
    <path class="cls-1" d="m340.9,1063.44c-11.92,0-21.24-3.32-27.96-9.96-6.72-6.64-10.08-16.12-10.08-28.44v-47.04h19.44v46.32c0,8,1.64,13.76,4.92,17.28,3.28,3.52,7.88,5.28,13.8,5.28s10.52-1.76,13.8-5.28c3.28-3.52,4.92-9.28,4.92-17.28v-46.32h19.2v47.04c0,12.32-3.36,21.8-10.08,28.44-6.72,6.64-16.04,9.96-27.96,9.96Z"/>
    <path class="cls-1" d="m398.14,1062v-84h36.36c7.52,0,14,1.22,19.44,3.66,5.44,2.44,9.64,5.94,12.6,10.5,2.96,4.56,4.44,10,4.44,16.32s-1.48,11.62-4.44,16.14c-2.96,4.52-7.16,7.98-12.6,10.38-5.44,2.4-11.92,3.6-19.44,3.6h-25.56l8.64-8.52v31.92h-19.44Zm19.44-29.76l-8.64-9.12h24.48c6,0,10.48-1.3,13.44-3.9,2.96-2.6,4.44-6.18,4.44-10.74s-1.48-8.24-4.44-10.8c-2.96-2.56-7.44-3.84-13.44-3.84h-24.48l8.64-9.24v47.64Zm33.96,29.76l-21-30.48h20.76l21.24,30.48h-21Z"/>
    <path class="cls-1" d="m513.94,1063.44c-6.72,0-13.16-.9-19.32-2.7-6.16-1.8-11.12-4.14-14.88-7.02l6.6-14.64c3.6,2.56,7.86,4.66,12.78,6.3,4.92,1.64,9.9,2.46,14.94,2.46,3.84,0,6.94-.38,9.3-1.14,2.36-.76,4.1-1.82,5.22-3.18,1.12-1.36,1.68-2.92,1.68-4.68,0-2.24-.88-4.02-2.64-5.34-1.76-1.32-4.08-2.4-6.96-3.24s-6.06-1.64-9.54-2.4c-3.48-.76-6.96-1.7-10.44-2.82-3.48-1.12-6.66-2.56-9.54-4.32-2.88-1.76-5.22-4.08-7.02-6.96s-2.7-6.56-2.7-11.04c0-4.8,1.3-9.18,3.9-13.14,2.6-3.96,6.52-7.12,11.76-9.48,5.24-2.36,11.82-3.54,19.74-3.54,5.28,0,10.48.62,15.6,1.86,5.12,1.24,9.64,3.1,13.56,5.58l-6,14.76c-3.92-2.24-7.84-3.9-11.76-4.98-3.92-1.08-7.76-1.62-11.52-1.62s-6.84.44-9.24,1.32c-2.4.88-4.12,2.02-5.16,3.42-1.04,1.4-1.56,3.02-1.56,4.86,0,2.16.88,3.9,2.64,5.22,1.76,1.32,4.08,2.38,6.96,3.18,2.88.8,6.06,1.6,9.54,2.4,3.48.8,6.96,1.72,10.44,2.76,3.48,1.04,6.66,2.44,9.54,4.2,2.88,1.76,5.22,4.08,7.02,6.96,1.8,2.88,2.7,6.52,2.7,10.92,0,4.72-1.32,9.04-3.96,12.96-2.64,3.92-6.58,7.08-11.82,9.48-5.24,2.4-11.86,3.6-19.86,3.6Z"/>
    <path class="cls-1" d="m603.7,1063.44c-6.64,0-12.78-1.08-18.42-3.24-5.64-2.16-10.52-5.2-14.64-9.12-4.12-3.92-7.32-8.52-9.6-13.8-2.28-5.28-3.42-11.04-3.42-17.28s1.14-12,3.42-17.28c2.28-5.28,5.5-9.88,9.66-13.8,4.16-3.92,9.04-6.96,14.64-9.12,5.6-2.16,11.68-3.24,18.24-3.24s12.74,1.08,18.3,3.24c5.56,2.16,10.4,5.2,14.52,9.12,4.12,3.92,7.34,8.5,9.66,13.74,2.32,5.24,3.48,11.02,3.48,17.34s-1.16,12.02-3.48,17.34c-2.32,5.32-5.54,9.92-9.66,13.8-4.12,3.88-8.96,6.9-14.52,9.06-5.56,2.16-11.62,3.24-18.18,3.24Zm-.12-16.56c3.76,0,7.22-.64,10.38-1.92,3.16-1.28,5.94-3.12,8.34-5.52,2.4-2.4,4.26-5.24,5.58-8.52,1.32-3.28,1.98-6.92,1.98-10.92s-.66-7.64-1.98-10.92c-1.32-3.28-3.16-6.12-5.52-8.52-2.36-2.4-5.14-4.24-8.34-5.52-3.2-1.28-6.68-1.92-10.44-1.92s-7.22.64-10.38,1.92c-3.16,1.28-5.94,3.12-8.34,5.52-2.4,2.4-4.26,5.24-5.58,8.52-1.32,3.28-1.98,6.92-1.98,10.92s.66,7.54,1.98,10.86c1.32,3.32,3.16,6.18,5.52,8.58,2.36,2.4,5.14,4.24,8.34,5.52,3.2,1.28,6.68,1.92,10.44,1.92Z"/>
    <path class="cls-1" d="m691.78,1063.44c-6.72,0-13.16-.9-19.32-2.7-6.16-1.8-11.12-4.14-14.88-7.02l6.6-14.64c3.6,2.56,7.86,4.66,12.78,6.3,4.92,1.64,9.9,2.46,14.94,2.46,3.84,0,6.94-.38,9.3-1.14,2.36-.76,4.1-1.82,5.22-3.18,1.12-1.36,1.68-2.92,1.68-4.68,0-2.24-.88-4.02-2.64-5.34-1.76-1.32-4.08-2.4-6.96-3.24s-6.06-1.64-9.54-2.4c-3.48-.76-6.96-1.7-10.44-2.82-3.48-1.12-6.66-2.56-9.54-4.32-2.88-1.76-5.22-4.08-7.02-6.96s-2.7-6.56-2.7-11.04c0-4.8,1.3-9.18,3.9-13.14,2.6-3.96,6.52-7.12,11.76-9.48,5.24-2.36,11.82-3.54,19.74-3.54,5.28,0,10.48.62,15.6,1.86,5.12,1.24,9.64,3.1,13.56,5.58l-6,14.76c-3.92-2.24-7.84-3.9-11.76-4.98-3.92-1.08-7.76-1.62-11.52-1.62s-6.84.44-9.24,1.32c-2.4.88-4.12,2.02-5.16,3.42-1.04,1.4-1.56,3.02-1.56,4.86,0,2.16.88,3.9,2.64,5.22,1.76,1.32,4.08,2.38,6.96,3.18,2.88.8,6.06,1.6,9.54,2.4,3.48.8,6.96,1.72,10.44,2.76,3.48,1.04,6.66,2.44,9.54,4.2,2.88,1.76,5.22,4.08,7.02,6.96,1.8,2.88,2.7,6.52,2.7,10.92,0,4.72-1.32,9.04-3.96,12.96-2.64,3.92-6.58,7.08-11.82,9.48-5.24,2.4-11.86,3.6-19.86,3.6Z"/>
  </g>
</svg>