<?xml version="1.0" encoding="UTF-8"?>
<svg id="Layer_2" data-name="Layer 2" xmlns="http://www.w3.org/2000/svg" viewBox="0 0 1125.86 275.92">
  <defs>
    <style>
      .cls-1 {
        fill: #00515F;
      }
    </style>
  </defs>
  <g id="Layer_1-2" data-name="Layer 1">
    <g>
      <path class="cls-1" d="m155.23,25.4c36.9,5.3,68.12,28.38,84.7,60.24.56,1.08,1.67,1.77,2.89,1.77h19.47c3.01,0,5.04-3.1,3.82-5.85-6.85-15.42-16.55-29.6-28.83-41.89C215.14,17.54,186.86,3.8,156.28.03c-2.47-.31-4.65,1.65-4.65,4.14v17.1c0,2.08,1.54,3.83,3.6,4.13Z"/>
      <path class="cls-1" d="m277.71,129.21c-.14-2.19-1.97-3.89-4.16-3.89h-117.75c-2.3,0-4.17,1.87-4.17,4.17v16.93c0,2.3,1.87,4.17,4.17,4.17h91.45c2.56,0,4.52,2.28,4.12,4.81-7.6,49.17-46.81,88.03-96.14,95.11-2.06.3-3.6,2.05-3.6,4.13v17.1c0,2.49,2.18,4.45,4.65,4.14,30.58-3.77,58.86-17.51,81-39.64,26.25-26.25,40.71-61.16,40.71-98.28,0-2.93-.09-5.85-.28-8.75Z"/>
      <path class="cls-1" d="m121.71.03c-30.58,3.77-58.86,17.51-81,39.64C14.42,65.97-.05,100.94,0,138.13c.05,37.29,15.17,73.14,41.83,99.22,21.95,21.47,49.77,34.81,79.81,38.52,2.5.31,4.71-1.62,4.71-4.13v-17.1c0-2.08-1.54-3.83-3.6-4.13-49.33-7.08-88.54-45.95-96.14-95.11-.39-2.53,1.57-4.81,4.12-4.81h41.26c2.3,0,4.17-1.87,4.17-4.17v-16.93c0-2.3-1.87-4.17-4.17-4.17H30.74c-2.56,0-4.52-2.28-4.12-4.81,7.6-49.16,46.81-88.03,96.14-95.11,2.06-.3,3.6-2.05,3.6-4.13V4.18c0-2.49-2.18-4.45-4.65-4.14Z"/>
    </g>
    <g>
      <path class="cls-1" d="m411.72,90.88l-34.83,59.14c-.45.76-1.54.76-2,0l-35.42-59.15c-.21-.35-.59-.56-1-.56h-12.34c-.64,0-1.16.52-1.16,1.16v90.33c0,.64.52,1.16,1.16,1.16h14.09c.64,0,1.16-.52,1.16-1.16v-55.28c0-1.17,1.54-1.61,2.15-.6l27.95,45.9c.21.35.59.56.99.56h6.37c.41,0,.79-.21,1-.56l27.97-46.65c.6-1.01,2.15-.58,2.16.59l.11,56.05c0,.64.52,1.16,1.16,1.16h13.96c.64,0,1.16-.52,1.16-1.16l-.13-90.33c0-.64-.52-1.16-1.16-1.16h-12.34c-.41,0-.79.22-1,.57Z"/>
      <path class="cls-1" d="m479.65,90.99l-40.65,90.33c-.35.77.22,1.64,1.06,1.64h15.17c.46,0,.88-.28,1.07-.7l8.57-20.03c.18-.43.6-.7,1.07-.7h44.81c.46,0,.88.28,1.07.7l8.6,20.04c.18.43.6.7,1.07.7h15.44c.84,0,1.4-.87,1.06-1.64l-40.78-90.33c-.19-.42-.6-.68-1.06-.68h-15.44c-.46,0-.87.27-1.06.68Zm-8,55.41l15.59-36.44c.4-.94,1.73-.94,2.13,0l15.65,36.44c.33.77-.23,1.62-1.07,1.62h-31.24c-.83,0-1.4-.85-1.07-1.62Z"/>
      <path class="cls-1" d="m609.73,152.05c5.87-2.6,10.39-6.35,13.57-11.25,3.18-4.9,4.76-10.74,4.76-17.54s-1.59-12.66-4.76-17.6c-3.18-4.94-7.7-8.74-13.57-11.38-5.87-2.65-12.9-3.97-21.11-3.97h-36.96c-.64,0-1.16.52-1.16,1.16v90.33c0,.64.52,1.16,1.16,1.16h14.89c.64,0,1.16-.52,1.16-1.16v-24.68c0-.64.52-1.16,1.16-1.16h19.75c1.01,0,2-.03,2.98-.07.4-.02.77.17,1,.49l18.17,26.08c.22.31.57.5.95.5h15.69c.94,0,1.49-1.06.95-1.83l-19.16-27.33c-.43-.61-.17-1.44.5-1.74,0,0,0,0,.01,0Zm-4.77-42.42c3.84,3.18,5.76,7.72,5.76,13.63s-1.92,10.37-5.76,13.63c-3.84,3.27-9.55,4.9-17.14,4.9h-18.96c-.64,0-1.16-.52-1.16-1.16v-34.61c0-.64.52-1.16,1.16-1.16h18.96c7.59,0,13.3,1.59,17.14,4.76Z"/>
      <path class="cls-1" d="m726.89,90.31h-16.14c-.32,0-.62.13-.84.36l-43.46,45.11c-.72.75-2,.24-2-.81v-43.5c0-.64-.52-1.16-1.16-1.16h-14.88c-.64,0-1.16.52-1.16,1.16v90.33c0,.64.52,1.16,1.16,1.16h14.88c.64,0,1.16-.52,1.16-1.16v-22.1c0-.3.12-.59.33-.81l13.53-13.85c.48-.49,1.28-.46,1.72.06l31.45,37.44c.22.26.55.41.89.41h17.15c.98,0,1.52-1.13.9-1.89l-39.19-48.58c-.36-.45-.34-1.1.06-1.52l36.43-38.7c.7-.74.17-1.96-.85-1.96Z"/>
      <path class="cls-1" d="m762.11,142.98h42.41c.64,0,1.16-.52,1.16-1.16v-11.84c0-.64-.52-1.16-1.16-1.16h-42.41c-.64,0-1.16-.52-1.16-1.16v-21.77c0-.64.52-1.16,1.16-1.16h48.11c.64,0,1.16-.52,1.16-1.16v-12.11c0-.64-.52-1.16-1.16-1.16h-65.31c-.64,0-1.16.52-1.16,1.16v90.33c0,.64.52,1.16,1.16,1.16h67.17c.64,0,1.16-.52,1.16-1.16v-12.11c0-.64-.52-1.16-1.16-1.16h-49.96c-.64,0-1.16-.52-1.16-1.16v-23.22c0-.64.52-1.16,1.16-1.16Z"/>
      <path class="cls-1" d="m821.66,104.87h28.38c.64,0,1.16.52,1.16,1.16v75.77c0,.64.52,1.16,1.16,1.16h14.88c.64,0,1.16-.52,1.16-1.16v-75.77c0-.64.52-1.16,1.16-1.16h28.38c.64,0,1.16-.52,1.16-1.16v-12.24c0-.64-.52-1.16-1.16-1.16h-76.3c-.64,0-1.16.52-1.16,1.16v12.24c0,.64.52,1.16,1.16,1.16Z"/>
      <rect class="cls-1" x="912.09" y="90.31" width="17.21" height="92.65" rx="1.16" ry="1.16"/>
      <path class="cls-1" d="m1007.54,150.5l-48.68-59.77c-.22-.27-.55-.43-.9-.43h-12.45c-.64,0-1.16.52-1.16,1.16v90.33c0,.64.52,1.16,1.16,1.16h14.75c.64,0,1.16-.52,1.16-1.16v-58.3c0-1.09,1.37-1.58,2.06-.73l48.68,59.77c.22.27.55.43.9.43h12.45c.64,0,1.16-.52,1.16-1.16v-90.33c0-.64-.52-1.16-1.16-1.16h-14.75c-.64,0-1.16.52-1.16,1.16v58.3c0,1.09-1.37,1.58-2.06.73Z"/>
      <path class="cls-1" d="m1108.84,163.69c0,.42-.23.81-.59,1.02-1.69.93-3.41,1.71-5.16,2.3-4.28,1.46-8.71,2.18-13.3,2.18-4.94,0-9.44-.79-13.5-2.38-4.06-1.59-7.59-3.86-10.59-6.82-3-2.96-5.32-6.42-6.95-10.39-1.63-3.97-2.45-8.29-2.45-12.97s.82-9.13,2.45-13.1c1.63-3.97,3.95-7.41,6.95-10.32,3-2.91,6.57-5.16,10.72-6.75,4.15-1.59,8.65-2.38,13.5-2.38s9.64.86,13.83,2.58c3.88,1.59,7.51,4,10.9,7.22.46.43,1.17.44,1.62,0l9.24-9.02c.45-.44.48-1.15.05-1.61-4.18-4.53-9.25-8-15.2-10.42-6.31-2.56-13.39-3.84-21.24-3.84-7.24,0-13.9,1.17-19.99,3.51-6.09,2.34-11.4,5.65-15.95,9.93-4.55,4.28-8.05,9.33-10.52,15.15-2.47,5.82-3.71,12.18-3.71,19.06s1.23,13.24,3.71,19.06c2.47,5.82,5.96,10.88,10.46,15.15,4.5,4.28,9.77,7.59,15.82,9.93,6.04,2.34,12.68,3.51,19.92,3.51,6.53,0,12.99-.99,19.39-2.98,6.2-1.92,11.68-4.74,16.43-8.45.28-.22.45-.56.45-.92v-35.2c0-.64-.52-1.16-1.16-1.16h-13.96c-.64,0-1.16.52-1.16,1.16v26.95Z"/>
    </g>
  </g>
</svg>