<?xml version="1.0" encoding="UTF-8"?>
<svg id="Layer_1" data-name="Layer 1" xmlns="http://www.w3.org/2000/svg" viewBox="0 0 995.75 746.77">
  <defs>
    <style>
      .cls-1 {
        fill: #f6f1e1;
      }
    </style>
  </defs>
  <g>
    <path class="cls-1" d="m719.94,158.23c5.42,0,9.07-5.58,6.87-10.53-12.31-27.73-29.76-53.24-51.86-75.34C635.14,32.55,584.27,7.84,529.26,1.06c-4.45-.55-8.36,2.97-8.36,7.45v30.75c0,3.74,2.76,6.89,6.47,7.42,66.36,9.53,122.52,51.04,152.34,108.35,1.01,1.95,3.01,3.19,5.2,3.19h0s35.02,0,35.02,0Z"/>
    <path class="cls-1" d="m528.4,226.41c-4.14,0-7.5,3.36-7.5,7.5v30.45c0,4.14,3.36,7.5,7.5,7.5h164.48c4.6,0,8.12,4.11,7.42,8.65-13.67,88.43-84.19,158.33-172.92,171.07-3.71.53-6.48,3.68-6.48,7.43v30.75c0,4.48,3.91,8,8.36,7.45,55-6.78,105.88-31.49,145.69-71.3,47.22-47.22,73.22-110,73.22-176.78,0-5.27-.17-10.52-.5-15.74-.25-3.94-3.54-6.99-7.49-6.99h-211.79Z"/>
    <path class="cls-1" d="m248.17,249.45c.08,67.07,27.29,131.56,75.24,178.46,39.48,38.61,89.52,62.61,143.55,69.29,4.5.56,8.48-2.91,8.48-7.44v-30.75c0-3.75-2.77-6.89-6.48-7.43-88.73-12.74-159.25-82.64-172.92-171.07-.7-4.55,2.82-8.65,7.42-8.65h74.2c4.14,0,7.5-3.36,7.5-7.5v-30.45c0-4.14-3.36-7.5-7.5-7.5h-74.2c-4.6,0-8.12-4.11-7.42-8.65,13.67-88.43,84.19-158.33,172.92-171.07,3.71-.53,6.48-3.68,6.48-7.43V8.51c0-4.48-3.91-8-8.36-7.45-55,6.78-105.88,31.49-145.69,71.3-47.29,47.29-73.31,110.2-73.22,177.09Z"/>
  </g>
  <g>
    <path class="cls-1" d="m1.81,743.93v-121.77h18.62l53.23,88.89h-9.74l52.36-88.89h18.62l.17,121.77h-21.4l-.17-88.2h4.52l-44.53,74.28h-10.09l-45.23-74.28h5.22v88.2H1.81Z"/>
    <path class="cls-1" d="m142.02,743.93l54.8-121.77h22.27l54.97,121.77h-23.66l-47.14-109.77h9.04l-46.97,109.77h-23.31Zm25.23-28.18l6.09-17.74h65.76l6.09,17.74h-77.93Z"/>
    <path class="cls-1" d="m280.84,743.93v-121.77h50.1c10.79,0,20.03,1.74,27.75,5.22,7.71,3.48,13.65,8.47,17.83,14.96,4.17,6.5,6.26,14.21,6.26,23.14s-2.09,16.61-6.26,23.05-10.12,11.37-17.83,14.79c-7.72,3.42-16.96,5.13-27.75,5.13h-37.58l10.09-10.26v45.75h-22.62Zm22.62-43.32l-10.09-10.79h36.53c9.97,0,17.48-2.14,22.53-6.44,5.04-4.29,7.57-10.26,7.57-17.92s-2.52-13.74-7.57-17.92c-5.05-4.17-12.56-6.26-22.53-6.26h-36.53l10.09-11.13v70.45Zm57.06,43.32l-30.79-44.19h24.18l30.96,44.19h-24.35Z"/>
    <path class="cls-1" d="m395.34,743.93v-121.77h22.62v121.77h-22.62Zm20.18-28.7l-1.22-26.79,63.84-66.28h25.4l-53.06,56.36-12.52,13.74-22.44,22.96Zm64.71,28.7l-46.62-55.49,14.96-16.53,58.1,72.02h-26.44Z"/>
    <path class="cls-1" d="m536.07,724.97h68.71v18.96h-91.33v-121.77h88.89v18.96h-66.28v83.85Zm-1.74-52.19h60.54v18.62h-60.54v-18.62Z"/>
    <path class="cls-1" d="m651.96,743.93v-102.64h-40.36v-19.14h103.33v19.14h-40.36v102.64h-22.61Z"/>
    <path class="cls-1" d="m723.28,743.93v-121.77h22.62v121.77h-22.62Z"/>
    <path class="cls-1" d="m760.17,743.93v-121.77h18.62l76.37,93.76h-9.22v-93.76h22.44v121.77h-18.61l-76.37-93.76h9.22v93.76h-22.44Z"/>
    <path class="cls-1" d="m945.3,745.67c-9.51,0-18.24-1.54-26.18-4.61-7.95-3.07-14.87-7.42-20.79-13.05-5.92-5.62-10.5-12.26-13.74-19.92-3.25-7.66-4.87-16.01-4.87-25.05s1.62-17.4,4.87-25.05c3.25-7.65,7.85-14.29,13.83-19.92,5.97-5.62,12.96-9.97,20.96-13.05,8-3.07,16.76-4.61,26.27-4.61,10.32,0,19.63,1.68,27.92,5.05,8.29,3.36,15.28,8.29,20.96,14.79l-14.26,13.92c-4.76-4.75-9.89-8.26-15.4-10.52-5.51-2.26-11.57-3.39-18.18-3.39s-12.29,1.04-17.74,3.13c-5.45,2.09-10.15,5.05-14.09,8.87-3.94,3.83-6.99,8.35-9.13,13.57-2.15,5.22-3.22,10.96-3.22,17.22s1.07,11.83,3.22,17.05c2.15,5.22,5.19,9.77,9.13,13.65,3.94,3.89,8.58,6.87,13.92,8.96,5.33,2.09,11.25,3.13,17.74,3.13,6.03,0,11.86-.96,17.48-2.87,5.62-1.91,10.99-5.13,16.09-9.66l12.87,16.87c-6.38,5.11-13.77,8.96-22.18,11.57-8.41,2.61-16.9,3.91-25.49,3.91Zm26.27-18.44v-45.58h21.4v48.53l-21.4-2.96Z"/>
  </g>
</svg>