<?xml version="1.0" encoding="UTF-8"?>
<svg id="Layer_1" data-name="Layer 1" xmlns="http://www.w3.org/2000/svg" viewBox="0 0 200 200">
  <defs>
    <style>
      .cls-1 {
        fill: none;
      }

      .cls-2 {
        fill: #44443e;
      }
    </style>
  </defs>
  <rect class="cls-1" x="0" width="200" height="200"/>
  <g>
    <path class="cls-2" d="m105.31,79.51c-3.25,0-6.89-1.27-9.86-2.3-1.74-.61-3.25-1.13-4.19-1.22l-.17-.05-.28-.14v-.14c-3,.6-6.11-.09-8.39-1.95-2.11-1.72-3.06-4.14-2.54-6.49.32-1.46,1.71-3.3,3.85-5.2.03-.05.07-.11.11-.16l.04.03c5.96-5.19,17.51-10.7,28.17-9.76,6.27,0,10.26.86,12.09,2.69,1.19,1.19,1.35,2.62,1.35,3.85,0,.45-.18.84-.51,1.13-1.4,1.22-5.54.74-12.18-.14-2.12-.28-4.32-.58-6.5-.8-5.76-.58-13.63,1.73-18.34,3.12-2.45.72-3.39.99-3.85.91-1.81,1.66-2.98,3.25-3.26,4.54-.44,2,.36,4.01,2.2,5.5,2.12,1.73,5.06,2.33,7.87,1.67-2.26-.83-3.69-2.93-4.1-4.08-.08-.22-.28-.79.1-1.1.16-.12.43-.2.72-.01,1.68.91,3.92,1.11,6.28.53.88-.21,1.66-.6,2.48-1l.65-.31c3.55-1.68,8.86-3.29,14.05-1.42,1.92.69,3.73,1.77,5.38,3.2.64.55,1.1,1,1.5,1.46.18.21.29.38.36.52.24.12.37.19.38.2.33.18.49.52.41.89-.39,1.76-8.38,5.72-13.05,6.02-.25.02-.5.02-.76.02Zm3.2-9.24c.85,1.16,1.17,2.94.94,4.08-.25,1.21-1.35,3.51-3.81,4.16.12,0,.25,0,.37-.02,4.53-.3,11.31-3.93,12.07-5.11-.39-.2-1.52-.77-3.03-1.39-2.45-.89-5.01-1.46-6.54-1.71Zm-15.73,5c.87.24,1.89.6,3.01.98,1.58.55,3.36,1.17,5.15,1.62-.9-.55-1.56-1.39-1.78-2.55-.22-1.17-.12-2.3,0-3.11-1.22.73-3.14,1.6-5.3,2.57-.36.16-.74.33-1.08.49Zm7.53-3.79s0,.05-.01.07c-.13.63-.43,2.1-.15,3.6.37,2.01,2.67,2.77,4.76,2.48,2.32-.32,3.34-2.42,3.56-3.48.24-1.15-.35-3.45-1.46-3.9-.09-.04-.26-.1-.37-.24-.1,0-.2,0-.3,0-2.37.07-4.05.59-6.01,1.48Zm-12.34-.82c.61,1.17,2.23,3.25,4.85,3.29,1.83-.81,3.29-1.54,4.58-2.17.77-.38,1.48-.73,2.15-1.04l.18-.17.12.04c2.1-.95,3.88-1.52,6.46-1.59,3.17-.08,6.74,1.08,9.24,2.1.13.05.26.1.39.15-.04-.03-.08-.07-.12-.1-1.56-1.35-3.26-2.36-5.06-3.01-4.86-1.76-9.9-.22-13.28,1.38l-.64.31c-.84.41-1.7.84-2.69,1.08-2.24.55-4.4.45-6.18-.25Zm-.84-.39s0,0,0,0c0,0,0,0,0,0Zm-2.57-7.79l.03.03s0,0,0,0h0,0s.02-.04.03-.07c-.02.02-.04.03-.06.05l-.35-.3.35.3s0,0,0,0Zm25.01-9.47c-9.11,0-18.47,4.29-23.95,8.6.6-.17,1.33-.38,2.06-.59,4.78-1.41,12.77-3.76,18.72-3.16,2.2.22,4.4.52,6.53.8,5.04.67,10.26,1.37,11.39.38.12-.11.17-.22.17-.38,0-1.25-.18-2.27-1.06-3.15-1.62-1.62-5.31-2.4-11.26-2.4h-.17c-.8-.07-1.61-.11-2.42-.11Z"/>
    <path class="cls-2" d="m133.25,126.48c-1.11,0-2.22-.07-3.15-.25-2.97-.59-6.91-2.97-8.8-5.31l.78-.63c1.73,2.14,5.5,4.41,8.22,4.96,2.29.46,5.85.12,7.57-.04.42-.04.73-.07.9-.08h.4c.97-.04,2.78-.09,4.72-.49,4.81-.89,5.9-3.97,6.43-5.44.41-1.17-.07-2.66-.35-2.98-.19,0-.53,0-1.09,0-1.55-.01-4.43-.03-5.73.24-1.83.38-3.63.44-4.4.47-.32.01-.64.07-1.01.14-.7.14-1.58.31-2.62.27-2.1-.1-3.32.32-6.59,1.41-.59.2-1.25.42-1.99.66-3.95,1.29-5.72.93-6.06.17-.14-.32-.02-.69.3-.87.68-.3,2.53-1.75,4.48-3.28,4.53-3.54,8.14-6.28,9.87-6.53,1.56-.23,2.88.32,3.95.76.88.37,1.43.58,1.68.33,1.1-1.06,1.87-1.71,3.38-1.79,1.5-.07,3.58,1.28,4.72,3.1.29.47.79,1.07,1.26,1.65,1.26,1.54,1.85,2.31,1.49,2.91-.12.2-.31.29-.5.33.37.86.58,2.2.17,3.34-.54,1.52-1.81,5.09-7.18,6.09-2.02.41-3.88.46-4.88.49h-.39c-.16.02-.45.05-.84.08-1.09.1-2.9.27-4.71.27Zm-11.44-7.22c.67.07,2.03-.02,4.39-.79.74-.24,1.39-.46,1.98-.66,3.3-1.1,4.68-1.54,6.94-1.46.93.03,1.74-.13,2.4-.25.41-.08.77-.15,1.08-.16.89-.03,2.57-.09,4.32-.45,1.41-.29,4.24-.28,5.94-.26.57,0,.99,0,1.11,0,.15-.02.37.01.59.21l.03-.13c-.22-.41-.85-1.17-1.28-1.71-.49-.61-1.01-1.23-1.33-1.75-.94-1.49-2.7-2.67-3.83-2.63-1.12.06-1.69.5-2.73,1.51-.74.72-1.72.3-2.76-.13-1-.42-2.13-.88-3.42-.7-1.61.24-6.11,3.76-9.4,6.33-1.71,1.34-3.14,2.45-4.03,3.03Zm28.27-3.04h0,0Z"/>
    <path class="cls-2" d="m128.42,102.58c-.32,0-.66-.05-1.01-.17-2.59-.85-4.01-2.55-4.22-5.05-.28-3.25,3.35-8.06,4.92-9.97l.77.63c-3.11,3.79-4.87,7.25-4.69,9.25.18,2.1,1.34,3.47,3.54,4.19,1.57.51,2.72-.77,3.96-2.37l.33-.43c.84-1.05,2.98-1.45,4.47-1.22,1.17.18,1.98.73,2.29,1.54.28.75,1.28.91,2.04.83.91-.1,1.58-.53,1.63-.86.2-1.33,2.04-3.06,3.04-3.14.43-.05.79.19.91.59.2.61-.29,1.3-1.13,2.37-.1.13-.23.29-.34.45,0,0,.02,0,.03-.01,2.73-1.01,1.67-4.71,1.66-4.75-.1-.28-.95-1.68-1.7-2.92-.86-1.42-1.83-3.03-2.36-4.02l-.2-.39c-4.08-7.72-6.14-12.46-6.27-14.47-.12-1.73.98-3.36,2.05-4.49.03-.12.07-.24.1-.35.06-.2.11-.4.17-.6.59-2.32,4.46-5.88,8.75-7.19,3.35-1.02,5.73-.06,8.24.95.87.35,1.77.71,2.74,1.01,2.62.81,4.14.02,4.78-.31.29-.15.56-.29.85-.09l.25.17-.02.36c-.5,3.22-2.39,4.29-3.47,4.64-.96.31-1.95.31-2.77.11-.29,1.1-2.69,4.37-5.06,5.3-2.39.94-6.76,1.13-11.14.48-1.74-.26-2.8-.76-3.33-1.58-.2-.31-.31-.65-.34-.99-.51.77-.86,1.65-.8,2.52.12,1.84,2.2,6.58,6.16,14.07l.21.39c.51.97,1.47,2.56,2.33,3.97,1.05,1.74,1.65,2.74,1.78,3.09.45,1.22.75,4.92-2.25,6.03-.6.22-1.27.42-1.6-.03-.36-.49.09-1.08.78-1.96.28-.35.75-.96.9-1.31-.58.24-1.83,1.39-1.96,2.25-.15,1.01-1.37,1.58-2.51,1.71-1.17.13-2.6-.19-3.09-1.47-.24-.62-1.05-.84-1.51-.91-1.45-.22-3.06.27-3.54.86l-.32.41c-.91,1.18-2.22,2.88-4.05,2.88Zm20.21-38.82c1.07.77,1.98,2.51,1.78,4.39-.19,1.77-1.18,3.13-2.81,3.87,1.92-.06,3.59-.33,4.74-.78,2.18-.86,4.36-4.03,4.46-4.63-.02-.05-.06-.12-.14-.19-.12-.08-.22-.16-.31-.25-.05-.05-.11-.1-.16-.15-.99-.72-3.02-1.79-5.1-2.14-.85-.12-1.67-.15-2.47-.12Zm-9.59,4.92c-.18.71-.28,1.37.03,1.85.35.54,1.24.92,2.63,1.13.18.03.37.05.55.08-.55-.31-1.02-.72-1.33-1.25-.69-1.2-.81-2.11-.82-2.73-.3.22-.68.54-1.07.93Zm1.89-2.12l.17.09.03.34c0,.1,0,.21-.01.35-.03.54-.08,1.35.67,2.64.84,1.45,3.61,1.78,5,1.29,1.08-.38,2.41-1.25,2.62-3.22.19-1.78-.82-3.19-1.56-3.59-.26-.14-.58-.31-.77-.54-2.52.4-4.65,1.45-6.15,2.64Zm10.28-3.67s.02,0,.03,0c2.11.29,4.67,1.42,5.82,2.58.43.43,1.84.77,3.16.34.93-.3,2.08-1.07,2.61-2.97-.92.4-2.57.85-4.98.11-1.02-.31-1.94-.68-2.82-1.04-2.45-.98-4.56-1.83-7.58-.92-3.02.92-5.65,2.98-7.05,4.7,1.73-1.36,4.18-2.52,7.09-2.85.45-.12,1.23-.14,2.65-.07.35.02.71.06,1.08.12Z"/>
    <path class="cls-2" d="m72.28,147.99l-1-.02c.21-13.42-.97-24.86-2.57-33.97-.51-1.09-.97-2.13-1.38-3.12-.44,1.47-1.41,2.51-2.84,3.02-1.97.71-4.57.25-6.47-1.12-1.5-1.09-2.73-2.71-3.67-4.83-.22-.5-.42-1.01-.61-1.52-.41-1.06-.8-2.07-1.39-2.97-1.02-1.56-2.59-2.73-4.11-3.87-.41-.31-.82-.61-1.22-.92-3.46-2.71-10.08-9.45-10.31-15.62-.09-2.4.79-4.47,2.61-6.13,1.82-1.66,3.89-2.4,6.13-2.19,6.72.63,13.53,9.72,16.8,14.08l.18.24c.82,1.09,4.65,9.73,7.3,24.76,3.31,6.97,8.95,15.69,17.62,20.83,11.75,6.96,25.83,9.72,33.17,10.75,11.13,1.56,24.82,1.78,31.93-10.35,6.05-10.33,7.8-22.15,9.49-33.58.46-3.1.93-6.31,1.49-9.45.78-4.4-.86-13.28-2.05-19.77l-.14-.79c-.65-3.55-.95-9.04-1.21-13.88-.17-3.09-.33-6.05-.55-7.64-3.08.61-13.69,5.78-15.93,7.62-1.64,1.35-4.31,1.73-5.95.84-1.08-.58-1.6-1.62-1.46-2.93.37-3.42,3.03-4.54,8.32-6.77l1.14-.48c6.14-2.6,13.53-2.05,14.55.26.41.92.59,3.89.87,9.05.26,4.81.55,10.26,1.19,13.75l.14.79c1.21,6.56,2.86,15.55,2.05,20.12-.55,3.12-1.02,6.33-1.48,9.42-1.71,11.53-3.47,23.44-9.62,33.94-7.41,12.64-21.49,12.43-32.93,10.84-7.42-1.04-21.64-3.83-33.54-10.88-7.6-4.5-13.02-11.84-16.57-18.41,1.31,8.54,2.2,18.9,2.01,30.9Zm-27.59-72.3c-1.71,0-3.25.65-4.7,1.96-1.6,1.46-2.36,3.26-2.28,5.35.22,5.8,6.59,12.27,9.93,14.87.39.31.8.61,1.2.91,1.59,1.19,3.24,2.41,4.35,4.12.64.99,1.07,2.09,1.48,3.16.19.5.38.99.6,1.47.86,1.96,1.99,3.44,3.34,4.43,1.62,1.17,3.9,1.57,5.54.99,1.15-.41,1.93-1.27,2.25-2.49.11-.42.18-.89.21-1.4-1.2-3.23-1.73-5.54-1.66-6.05l.05-.33.37-.17c.13-.04.4-.05.63.26.16.21.31.44.44.68-2.12-8.27-4.25-13.07-4.81-13.81l-.18-.24c-3.19-4.25-9.82-13.09-16.1-13.69-.22-.02-.45-.03-.67-.03Zm22.94,33.16c.06.16.12.32.18.49-.06-.28-.12-.56-.18-.84,0,.12,0,.24,0,.36Zm86.45-61.34c-2.4,0-5.33.45-8.09,1.62l-1.15.48c-5.24,2.21-7.41,3.12-7.72,5.96-.1.9.22,1.55.94,1.94,1.29.7,3.51.36,4.84-.73,2.11-1.73,12.83-7.09,16.37-7.83-.01-.03-.02-.06-.03-.08-.34-.77-2.41-1.36-5.16-1.36Z"/>
  </g>
</svg>