<?xml version="1.0" encoding="UTF-8"?>
<svg id="Layer_1" data-name="Layer 1" xmlns="http://www.w3.org/2000/svg" viewBox="0 0 200 200">
  <defs>
    <style>
      .cls-1 {
        fill: none;
      }

      .cls-2 {
        fill: #44443e;
      }
    </style>
  </defs>
  <rect class="cls-1" width="200" height="200"/>
  <g>
    <path class="cls-2" d="m96.73,86.28c-3.35,0-6.5-.62-8.83-2.33l-.3-.22.11-.37c.15-.41.55-.33.75-.29,1.53.29,3.12.29,4.74.02,0-.17-.02-.78.04-1.6.04-1.79.34-4.5,2.12-6.21.49-.51,1.08-.91,1.81-1.12,1.37-.5,3.07-.51,5.09-.04,3.62.79,6.18,2.35,7.6,4.02.67.06,1.57-.54,2.14-.99,1.6-1.26,2.71-3.15,3.05-5.18.62-3.79-1.6-7.13-3.88-9-2.17-1.78-5.02-2.97-8.7-3.65-2.59-.48-5.17-.63-7.7-.46-1.09.07-2.51.23-3.76.77-1.22.54-2.17,1.43-2.59,2.44-.46,1.13-.25,2.44.52,3.2.52.51,1.33.81,2.29.85.8.04,1.59-.1,2.44-.24l.3-.05c2.98-.49,6.02-.72,9.04-.69,4.37.05,8.24,1.43,10.91,3.9l-.68.73c-2.49-2.3-6.12-3.58-10.25-3.63-2.95-.03-5.95.19-8.87.68l-.3.05c-.86.14-1.75.29-2.64.25-1.2-.05-2.25-.46-2.94-1.14-1.05-1.03-1.36-2.79-.74-4.29.53-1.27,1.63-2.33,3.11-2.98,1.39-.61,2.92-.78,4.09-.85,2.6-.17,5.27-.01,7.94.48,3.85.71,6.84,1.97,9.15,3.86,3.19,2.61,4.81,6.42,4.23,9.94-.37,2.28-1.62,4.39-3.42,5.8-.84.66-1.52.99-2.09,1.13.4.68.62,1.36.64,1.99.05,1.64-1.14,2.93-3.28,3.54-.12.03-.24.07-.36.1-3.27.85-7.14,1.59-10.78,1.59Zm-6.13-2c2.91,1.15,6.59,1.18,10.2.72-1.7-.19-3.23-.52-4.42-.78-.91-.2-1.86-.4-2.09-.35-1.24.29-2.46.43-3.69.4Zm3.79-1.41c.45,0,1.11.14,2.21.38,2.56.55,6.8,1.47,10.67.47l.07-.02h0c.09-.02.17-.05.26-.07,1.69-.48,2.59-1.39,2.55-2.55-.02-.64-.33-1.36-.88-2.07-.32-.12-.56-.33-.72-.52-1.79-2.14-7-4.17-10.8-3.47-.1.02-.19.04-.29.07-.42.16-.8.37-1.14.64-.03.03-.07.05-.1.08-1.31,1.24-1.81,3.58-1.98,5.27-.03.55-.02,1.03-.02,1.4,0,.15,0,.29,0,.39.05,0,.1,0,.16,0Z"/>
    <path class="cls-2" d="m81.99,157.59c-9.66,0-15.94-2.21-17.85-6.36-1.97-4.28-1.97-7.58,0-11.78,1.92-4.1,1.17-5.51.08-6.43-1.65-1.38-2.49-2.73-2.49-4.02,0-1.12.31-3.85,3.15-5.04.22-.09.48-.19.76-.29.27-.12.54-.26.6-.34,0,0-.03-.09-.15-.26-.13-.2-.27-.41-.42-.62-.69-1-1.47-2.13-1.77-3.52-.18-.84-.34-2.11-.03-3.25.16-1.09.5-2,.83-2.58l.08-.13c.55-.95,2.23-3.86,2.03-5.32-.21-1.61-1-3.17-2.47-4.9-.02.12-.02.24-.01.38.04.64-.22.93-.44,1.07-.36.22-.85.15-1.45-.21-1.63-.98-4.54-4.49-4.41-6.93.13-2.43,2.69-4.36,6.22-7.02,1.44-1.09,3.07-2.32,4.78-3.76.69-.59,1.39-1.17,2.09-1.75,5.11-4.26,9.93-8.29,11.18-11.91.85-2.46.28-5.06-.27-7.57-.08-.38-.17-.75-.24-1.13-.64-3.07-.25-6.24,1.25-10.27,2.5-6.7,8.27-18.71,18.88-23.84l.44.9c-10.3,4.98-15.94,16.73-18.38,23.29-1.43,3.84-1.8,6.84-1.21,9.72.08.37.16.74.24,1.12.58,2.65,1.18,5.39.24,8.12-1.35,3.88-6.27,7.99-11.48,12.35-.69.58-1.39,1.16-2.08,1.75-1.73,1.46-3.38,2.7-4.83,3.8-3.32,2.5-5.72,4.31-5.82,6.28-.08,1.47,1.41,3.75,2.84,5.15.77.75,1.25.99,1.46,1.05,0-.03,0-.07,0-.12-.03-.53.07-1,.3-1.39-.54-1.07-.52-2.53.07-3.88,1.12-2.54,3.91-4.07,7.46-4.11,4.19-.06,8.1,1.62,10.21,4.33,1.3,1.68,1.75,3.59,1.26,5.38-.95,3.51-4.72,5.74-7,5.79-1.21.01-1.59-.64-1.69-.92-.11-.36-.2-.79-.3-1.26-.38-1.86-.85-4.17-3.24-4.93-2.41-.77-4.53-.88-5.5-.3,1.72,1.96,2.64,3.76,2.89,5.63.21,1.59-1.04,4.02-2.16,5.95l-.05.08c1.42-.62,3.1.13,4.18,1.21.36.35.79.95,1.34,1.7,1.2,1.64,2.83,3.9,4.97,5.49,3.48,2.6,5.1,4.51,5.42,6.4.09.52-.16.78-.31.88,0,0-.01,0-.02.01.03.03.06.07.08.1.25.33.17.6.1.73-.22.42-.67.39-1.74.33-1.14-.06-3.05-.17-5.29.26-.9.17-1.76.36-2.59.54-2.82.62-5.3,1.16-7.45.53.18.17.37.34.58.51,1.9,1.58,1.95,3.86.19,7.62-1.83,3.9-1.83,6.96,0,10.93,1.97,4.27,9.31,6.28,20.7,5.67,8.84-.27,17.64-1.72,26.15-3.13l3.21-.53c9.13-1.49,19.38-4.17,26.22-12.72l.78.62c-7.06,8.82-17.53,11.56-26.84,13.09l-3.21.53c-8.54,1.42-17.37,2.88-26.27,3.15-1.32.07-2.58.11-3.79.11Zm-16-32.98s-.08.04-.11.05c-.37.17-.78.36-1.25.63-.95.56-1.96,2.21-1.89,3.57.04.78.43,1.34,1.16,1.67,2.02.92,4.61.35,7.6-.31.84-.18,1.71-.38,2.62-.54,2.36-.44,4.35-.34,5.53-.27.07,0,.13,0,.2.01-.34-.26-.79-.56-1.3-.88-.57-.31-1.24-.71-2.03-1.18-.07-.04-.14-.08-.22-.13-.41-.22-.8-.42-1.15-.59-.48-.23-1.02-.5-1.57-.77-1.38-.68-2.93-1.45-3.62-1.63-1.36-.36-2.94,0-3.98.36Zm13.07,3.07c.58.32,1.09.57,1.41.66-.37-1.58-1.92-3.3-4.99-5.59-2.26-1.68-3.95-4.01-5.18-5.7-.5-.69-.93-1.29-1.23-1.58-.93-.93-2.4-1.58-3.43-.79-.41.31-.65.75-.79,1.23-.09.65-.11,1.36-.02,2.07.19,1.52.51,2.01,1.15,2.99.13.2.27.42.42.66.42.68,1.06.87,2.48,1.24.93.24,2.08.55,3.54,1.15,1.36.56,2.98,1.51,4.43,2.38.7.38,1.49.83,2.21,1.28Zm-12.4-27.16c1.62,0,3.35.49,4.04.71,2.95.94,3.53,3.79,3.92,5.68.09.44.17.84.27,1.15.06.18.4.22.71.23,1.64-.04,5.17-1.8,6.05-5.05.4-1.48.02-3.08-1.08-4.51-1.89-2.44-5.42-3.95-9.25-3.95-.05,0-.11,0-.16,0-4.53.05-6.09,2.48-6.56,3.52-.42.95-.49,1.96-.23,2.73.62-.38,1.44-.51,2.28-.51Z"/>
  </g>
</svg>