<?xml version="1.0" encoding="UTF-8"?>
<svg id="Layer_1" data-name="Layer 1" xmlns="http://www.w3.org/2000/svg" viewBox="0 0 200 200">
  <defs>
    <style>
      .cls-1 {
        fill: none;
      }

      .cls-2 {
        fill: #44443e;
      }
    </style>
  </defs>
  <rect class="cls-1" x="0" width="200" height="200"/>
  <g>
    <path class="cls-2" d="m100.75,169.59c-9.25,0-22.79-11.47-22.94-11.6-13-11.1-20.56-27.37-22.48-48.35-.49-1.43-7.01-20.53-6.89-24.33.02-.5-.12-.81-.42-.92-.61-.21-1.82.31-2.61,1.39-.49.67-1.45,2.47.24,4.77,1.45,1.97,1.38,5.05,1.3,8.02-.08,3.26-.16,6.63,1.72,8.46,1.2,1.17,3.13,1.65,5.88,1.5l.06,1c-3.06.17-5.22-.41-6.63-1.78-2.2-2.13-2.11-5.73-2.03-9.2.07-2.94.14-5.71-1.11-7.4-2.09-2.83-.87-5.11-.25-5.96,1.02-1.38,2.62-2.13,3.74-1.74.73.25,1.12.94,1.09,1.89-.12,3.67,6.78,23.82,6.85,24.02l.03.12c1.88,20.74,9.33,36.81,22.14,47.74,4.18,3.57,16.6,12.55,23.84,11.23,1.89-.35,3.27-1.34,4.21-3.05.91-1.66.75-4.38.58-7.25-.11-1.77-.21-3.6-.07-5.27l1,.09c-.14,1.6-.03,3.4.07,5.13.18,3.02.35,5.88-.7,7.79-1.08,1.96-2.73,3.15-4.9,3.55-.55.1-1.13.15-1.73.15Z"/>
    <path class="cls-2" d="m102.47,150.1c-4.83,0-8.24-2.62-9.52-3.79-.06-.06-5.73-5.34-5.82-6.6-.23-.1-.39-.2-.48-.28l-.24-.22.18-.68.37-.04c1.79-.14,3.31-1.45,4.93-2.83,1.48-1.26,6.46-4.73,9.45-4.73,1.6,0,2.66.62,3.6,1.16.61.36,1.14.66,1.72.73.03,0,.1-.02.17-.07,1.59-1.25,3.13-1.73,5.31-1.67,1.87.05,4.53,1.46,8.61,4.54,1.51,1.14,2.95,1.77,3.82,2.14.79.34,1.19.51,1.14.98-.02.19-.12.32-.25.41-4.27,7.38-11.31,10.13-13.68,10.57-1.53.28-2.84.27-4.38.25-1.19-.01-2.53-.03-4.25.09-.23.01-.46.02-.68.02Zm-13.8-9.67c1.12,1.3,3.5,3.8,4.96,5.14,1.24,1.14,4.64,3.75,9.46,3.51,1.75-.12,3.11-.11,4.32-.09,1.54.02,2.75.03,4.18-.24,2.01-.37,8.42-2.88,12.52-9.31-.28.02-.65.05-1.15.08-.04,0-.08,0-.12,0-2.36.22-6.02.6-6.67.89-1.17.52-8.27,2.22-12.1,1.61l-1.6-.26c-3.48-.56-8.29-1.34-10.51-1.3-1.53.02-2.57,0-3.31-.04Zm4.86-.9c2.51.19,6.11.77,9.12,1.25l1.59.26c3.57.57,10.45-1.06,11.53-1.54.03-.01,1.89-.32,3.94-.61-.5-.15-1.02-.33-1.56-.51-2.62-.86-5.89-1.94-7.79-1.39-2.62.76-4.03.52-5.16.33-.27-.04-.53-.09-.78-.11-4.29-.88-6.28.09-9.05,1.44-.54.26-1.11.54-1.72.81-.04.02-.09.04-.13.06Zm-4.94-.41c1.1.23,2.79.29,4.66-.56.6-.27,1.16-.54,1.69-.8,2.83-1.38,5.06-2.47,9.63-1.53.23.02.5.06.8.11,1.08.18,2.31.38,4.71-.31,2.2-.63,5.48.45,8.38,1.4,1.67.55,3.25,1.07,4.17,1.09.35-.04.67-.07.97-.09-.91-.41-2.16-1.03-3.46-2.01-2.42-1.83-5.89-4.28-8.04-4.34-1.95-.05-3.26.35-4.66,1.45-.27.21-.59.31-.9.28-.78-.09-1.42-.46-2.11-.86-.87-.5-1.77-1.03-3.1-1.03-2.36,0-6.91,2.88-8.8,4.49-1.24,1.06-2.51,2.15-3.95,2.7Z"/>
    <path class="cls-2" d="m108.31,122.5c-.37,0-.71-.02-1.02-.07-.77-.11-2.23-.51-3.76-1.02-1.32.55-3.4.69-5.48-.21-1.78-.77-3.12-2.35-3.69-4.35-.68-2.41-.16-5.09,1.43-7.37,2.31-3.3,3.17-7.28,4.18-11.88.29-1.33.59-2.72.95-4.17,1.03-5.91-.22-9.72-3.16-12.44-.05,2.04-.42,3.95-.89,5.29-.6,1.73-1.36,2.58-2.21,2.47-.11-.01-.21-.03-.31-.05-.01.07-.04.14-.07.21l-.92-.4s.01-.06,0-.11c-.17-.08-.33-.16-.49-.26-.46.19-1.56.31-4.35.25-1.05-.03-2.35.17-3.73.38-2.48.38-5.3.81-7.85.16-2.93-.74-5.1-2.35-6.13-3.24-.24-.2-.37-.5-.38-.81,0-.08,0-.16.02-.24-.18.07-.35.13-.51.17-4.49.93-7.44-2.2-8.38-3.99-.13-.25-.36-.67-.04-.98l.27-.26.35.19c1.78,1.14,4.8.77,7.04.04.18-.06.35-.12.53-.18.06-.02.13-.04.19-.06.05-.01.09-.03.14-.04.43-.16.86-.34,1.27-.51,1.2-.49,2.43-.99,3.82-1.25,1.84-.35,3.7-.42,5.54-.21,3.89.44,7.38,2.12,9.81,4.73,1.14,1.22,2.12,2.55,2.91,3.93l.14.24c.24.39.47.79.63,1.18.19.06.39.1.62.13.16.02.65-.41,1.13-1.81.49-1.41.87-3.57.83-5.8-4-3.03-10.41-4.6-18.2-6.52-10.68-2.62-17.17-1.28-19.31-.84-.8.17-1.16.24-1.36-.17-.19-.41.17-.7.41-.88,1.59-1.25,6.42-4.16,11.25-5.16,4.46-.91,18.18,1.17,24.38,4.92,2.67,1.62,3.69,4.92,3.83,8.18,3.64,2.93,5.33,7.15,4.15,13.96-.36,1.47-.66,2.85-.95,4.18-1.03,4.71-1.92,8.77-4.34,12.24-1.42,2.03-1.89,4.41-1.29,6.53.48,1.71,1.62,3.06,3.12,3.7,1.23.53,2.41.63,3.37.52-1.97-.74-3.67-1.56-3.66-2.06v-.44s.48-.07.48-.07c.46-.05,4.91.05,5.99,1.05.35.33.4.8.12,1.22-.05.07-.11.15-.17.22,1.01.32,2.01.58,2.86.7,1.02.15,2.29.03,3.58-.23-.14-.11-.25-.23-.32-.35-.18-.33-.17-.81.39-1.18,1.11-.74,6.04-1.94,6.88-1.15.19.18.25.44.16.69.82-.8,1.45-1.84,1.71-2.91.21-.85.28-2.09-.57-3.15l.78-.63c.87,1.08,1.14,2.51.77,4.02-.51,2.04-2.1,3.95-3.97,4.74-1.3.55-2.84.68-4.06.52-1.53.41-3.13.69-4.46.69Zm3.37-2.02c.19.12.56.24,1.04.31,1.67-.48,3.17-1.09,3.95-1.54-1.33.07-4.07.67-4.98,1.23Zm-10.9-1.16c.75.32,1.67.69,2.64,1.03.37-.2.49-.38.5-.42-.36-.29-1.84-.51-3.14-.62Zm-29.31-34.37c.78.67,2.89,2.31,5.72,3.03,2.35.6,5.06.19,7.45-.18,1.43-.22,2.78-.42,3.9-.39,1.61.03,2.57,0,3.14-.05-.21-.21-.43-.44-.66-.68-.59-.63-1.3-1.39-2.26-2.12-2.42-1.79-6.87-3.37-11.24-2.72-3.08.46-5.28,2.24-6.08,2.99l-.32.5.33-.38Zm18.28-.9c.87.7,1.5,1.33,2.07,1.89.21.21.4.4.58.57-.72-1.23-1.61-2.41-2.63-3.51-2.27-2.44-5.54-4.01-9.19-4.42-1.74-.2-3.51-.13-5.25.2-1.28.24-2.42.71-3.63,1.2-.43.17-.86.35-1.3.52-.07.02-.13.05-.2.07l-.13.04c-.19.07-.37.14-.56.2-.99.32-3.99,1.16-6.46.48,1.06,1.34,3.32,3.28,6.67,2.59.48-.13,1.11-.46,1.84-.85,1.23-.66,2.8-1.5,4.86-1.97.31-.08.64-.14.97-.19.03,0,.06,0,.09-.01,1.43-.22,3.07-.24,4.96.07,3.52.58,5.75,1.86,7.31,3.14Zm-23.3-12.97c3.2,0,7.32.37,12.34,1.61,7.33,1.8,13.66,3.36,17.89,6.22-.25-2.68-1.17-5.26-3.28-6.54-5.91-3.57-19.45-5.65-23.66-4.79-3.41.7-7.17,2.55-9.48,4.02,1.37-.24,3.44-.52,6.19-.52Z"/>
    <path class="cls-2" d="m129.73,157.39l-.71-.7c7.39-7.46,15.22-16.7,17.26-28.68.22-1.29.36-2.53.41-3.73-1.48,2.59-5.29,8.38-10.33,9.48-2.31.5-4.54-.05-6.64-1.65-.89-.67-1.62-1.53-2.2-2.53-2.43-4.3-3-10.62-1.38-15.35.79-2.29,2.35-4.24,4.4-5.47,2.54-1.52,5.36-1.77,8.15-.71,3.66,1.38,6.84,4.88,8.12,8.91.33,1.05.57,2.16.72,3.32,3.99-9.46,4.59-22.06-2.06-29.32-3.68-4.01-8.97-5.4-14.08-6.74-5.91-1.55-12.01-3.15-15.75-8.77-2.67-4.01-3.55-8.83-4.4-13.49-.65-3.54-1.31-7.2-2.76-10.47-3.86-8.71-13.79-14.6-24.12-14.32-8.93.24-20.66,5.09-25.8,13.92l-.87-.5c5.32-9.14,17.42-14.17,26.63-14.41,10.75-.27,21.04,5.85,25.06,14.92,1.5,3.38,2.18,7.1,2.83,10.7.87,4.77,1.69,9.27,4.25,13.11,3.53,5.3,9.18,6.78,15.17,8.35,5.25,1.38,10.69,2.8,14.56,7.03,7.34,8.01,6.26,22.17,1.49,32.07.06,1.83-.09,3.77-.44,5.83-2.09,12.25-10.04,21.64-17.54,29.22Zm5.58-48.98c-1.46,0-2.89.41-4.24,1.21-1.85,1.11-3.26,2.86-3.97,4.93-1.54,4.48-1,10.46,1.3,14.53.5.89,1.15,1.64,1.93,2.23,1.86,1.41,3.82,1.9,5.82,1.47,5.12-1.12,8.97-7.65,10.03-9.63.18-.33.35-.67.52-1.02-.08-1.75-.35-3.38-.83-4.88-1.19-3.75-4.14-6.99-7.52-8.27-1.02-.38-2.04-.58-3.04-.58Z"/>
    <g>
      <path class="cls-2" d="m83.41,88.94l-.5-.87c1.34-.77,2.17-2.21,2.17-3.75,0-.74-.19-1.46-.54-2.1l.87-.49c.44.79.67,1.68.67,2.59,0,1.9-1.02,3.66-2.67,4.61Z"/>
      <path class="cls-2" d="m78.57,89.17c-1.9-.86-3.13-2.76-3.13-4.85,0-1.17.37-2.28,1.08-3.21l.8.6c-.57.75-.88,1.66-.88,2.61,0,1.69,1,3.24,2.54,3.94l-.41.91Z"/>
    </g>
  </g>
</svg>