<?xml version="1.0" encoding="UTF-8"?>
<svg id="Layer_1" data-name="Layer 1" xmlns="http://www.w3.org/2000/svg" viewBox="0 0 200 200">
  <defs>
    <style>
      .cls-1 {
        fill: none;
      }

      .cls-2 {
        fill: #44443e;
      }
    </style>
  </defs>
  <rect class="cls-1" x="0" width="200" height="200"/>
  <g>
    <path class="cls-2" d="m111.46,66.27c-2.83,0-5.56-1.45-7.02-3.77-2.98-4.73-.08-9.8,4.12-12.73,13.34-9.31,28.38-7.11,32.87-1.5.73.92,1.42,1.95.94,2.65-.64.93-2.59.37-6.6-.88-2.7-.84-5.77-1.8-8.08-1.96-5.36-.37-13.86.8-18.61,2.55-3.51,2.47-6.59,6.91-3.79,11.34,1.33,2.11,3.87,3.39,6.47,3.29,1.93-.08,3.43-1.17,5.03-2.33.74-.54,1.5-1.09,2.32-1.55.06-.03.12-.07.19-.1.31-1.41,1.41-2.71,3.11-3.66,2.72-1.52,6.32-1.84,8.96-.78,2.83,1.13,5.05.81,5.89.69.39-.06.73-.11.9.25l.16.32-.28.3c-1.25,1.25-2.98,2.4-6.28,1.89.12.84.21,2.4-.35,3.44-.06.1-.12.21-.21.32-.18.29-.45.55-.78.75-.37.26-.83.49-1.37.63-.97.26-2.52.32-4.41-.87-1.77-1.11-3.25-1.68-4.13-2.03-.33-.13-.6-.23-.81-.34-.04.02-.08.04-.11.06-.76.42-1.5.96-2.22,1.48-1.64,1.19-3.34,2.43-5.57,2.52-.11,0-.22,0-.33,0Zm15.3-6.66h0c-.61,1.01-.8,1.96-.59,2.81.22.88.83,1.43,1.12,1.6.43.28,1.18.37,1.85.22.28-.06.53-.16.74-.29.21-.16.37-.32.49-.48.25-.38.58-1.26.29-3.4-.28-.07-.58-.15-.88-.24-.94-.28-1.99-.33-3.03-.23Zm-5.92,2s.02,0,.02,0c.91.35,2.44.95,4.3,2.11.28.18.55.32.81.44-.31-.38-.61-.88-.77-1.5-.22-.88-.13-1.81.29-2.78-.46.1-.98.23-1.15.28-1.15.37-2.33.85-3.5,1.44Zm7.04-4.39c-1.71,0-3.5.44-5,1.28-1.02.57-1.78,1.27-2.23,2.03,2.14-1.28,6.41-2.55,9.43-1.65,2.95.88,4.71.63,6.07-.23-1.22.07-3.03-.02-5.17-.88-.93-.37-2-.56-3.1-.56Zm-2.3-10.2c.77,0,1.5.02,2.18.07,2.43.17,5.55,1.14,8.31,2,2.11.66,5,1.57,5.49,1.25-.03,0-.04-.36-.91-1.44-3.91-4.89-16.42-6.96-28.42-.24,4.1-1,9.25-1.64,13.35-1.64Z"/>
    <path class="cls-2" d="m92.54,179.87c-.12,0-.24-.04-.34-.11-1.59-1.17,1.31-32.96,6.04-39.81,3.05-4.43,5.93-6.53,10.01-6.53.06,0,.12,0,.18,0-29.65-11.11-33.65-19.12-35.5-27.65-1.78-8.23-7.59-16.51-8.49-17.4-.21-.21-.44-.41-.7-.63-.95-.81-2.24-1.92-3.1-4.16-1.06-3.08-4.71-7.14-6.99-7.78-.46-.13-.82-.1-1.05.1-1.96,1.64-5.24,6.27-2.84,10.17,1.62,2.64,3.83,2.83,6.38,3.04,1.3.11,2.65.22,4,.68.5.17.98.31,1.44.45,3.22.96,5.54,1.66,8.2,7.92,1.65,3.88.15,6.17-.89,7.19-1.96,1.93-5.19,2.38-6.98,1.59-1.41-.63-2.85-2.22-4.52-4.06-2.02-2.24-4.31-4.77-7.14-6.27-5.55-2.95-13.22-14.9-12.06-24.75.56-4.68,2.62-8.24,5.82-10.02,3.09-1.72,6.92-1.68,10.78.12,7.68,3.59,4.07,15.07,4.03,15.19l-.95-.31c.03-.11,3.38-10.76-3.5-13.97-3.56-1.66-7.06-1.72-9.87-.15-2.91,1.62-4.79,4.91-5.31,9.26-1.08,9.15,6.2,20.91,11.53,23.74,2.98,1.58,5.34,4.19,7.41,6.48,1.59,1.76,2.97,3.28,4.19,3.82,1.45.65,4.22.23,5.87-1.39,1.05-1.03,2.02-2.93.67-6.09-2.48-5.83-4.5-6.43-7.56-7.35-.47-.14-.96-.29-1.47-.46-1.24-.41-2.52-.52-3.77-.63-2.59-.22-5.26-.45-7.15-3.52-2.74-4.45.88-9.64,3.05-11.46.34-.29.97-.57,1.96-.29,2.56.72,6.5,5.03,7.66,8.4.77,1.98,1.9,2.96,2.82,3.74.27.24.53.46.75.68,1.06,1.06,6.93,9.42,8.76,17.9,1.84,8.55,5.99,16.56,38.18,28.14.23.09.35.22.4.34,1.94.5,4.12,1.32,6.63,2.42,11.12,4.89,21.77,4.26,24.87,1.96,3.72-2.75,5.08-6.83,3.73-11.18-1.48-4.79-1.29-7.46.8-9.68-.18.04-.36.08-.55.1-2.31.29-5.55-.81-7.71-2.64-1.87-1.58-4.58-2.92-6.04-3.65-1.21-.6-1.4-.69-1.32-1.11l.07-.37.47-.06h.07c.06.02.12.03.18.04v-.03s-.17-.47-.17-.47l.49-.16c.56-.19,3.83-1.27,7.52-2.81,2.63-1.19,5.03-2.43,6.09-3.08,1.37-.84,3.12-1.1,4.32-.89-.09-.3-.21-.63-.34-.99-.52-1.45-1.22-3.43-.85-5.81.51-3.31,1.12-3.64,2.86-3.82.5-.05,1.07-.11,1.79-.33.16-.05.31-.13.44-.25-.52-.11-.91-.43-1.13-.91-.2-.45-.68-.68-1.04-.79-1.28-.4-3.25-.05-4.7.83-.34.2-.71.45-1.1.72-2.33,1.57-5.85,3.93-8.23.49-.99-1.43-1.1-3.08-.32-4.65,1.42-2.85,5.46-4.76,10.54-4.98,5.05-.22,7.34,2.7,7.81,5.51.15.88.12,1.74-.06,2.49.94-.4,2.07-1.13,3.12-2.04.94-.82,1.46-1.8,1.51-2.84.06-1.16-.46-2.34-1.55-3.51-.31-.33-.64-.67-.98-1.03-2.41-2.52-5.71-5.98-8.39-11.82-.18-.36-.44-.85-.74-1.4-1.1-2.06-2.57-4.82-3.08-6.54-.04-.06-.07-.12-.1-.18-.52-1.12,0-2.47.54-3.9.18-.48.37-.96.51-1.43.38-1.26,1.66-4.24,2.84-5.96.39-1.89.69-4.48-.36-7.06l.93-.38c.89,2.19.89,4.4.66,6.19.05-.02.09-.03.14-.03.52-.05,1.23.26,1.5.95.22.54.29,1.67-1.64,3.14-.48.36-.98.69-1.41.41-.15-.1-.24-.22-.28-.39-.56,1.12-1.09,2.36-1.41,3.41-.15.5-.34,1.01-.53,1.5-.26.69-.52,1.35-.63,1.93.36,0,.8.15,1.36.33,1.21.39,2.87.92,4.57.37.46-.12.67.08.75.21.05.08.2.36-.07.7-.48.61-3.21,2.23-5.77,1.35-.04-.01-.07-.03-.11-.04.67,1.56,1.71,3.51,2.48,4.95.3.56.56,1.05.76,1.43,2.61,5.71,5.72,8.95,8.21,11.56.34.36.67.71.99,1.04,1.26,1.35,1.89,2.82,1.82,4.24-.07,1.31-.71,2.54-1.85,3.54-.98.86-2.73,2.11-4.24,2.51-.36.64-.87,1.1-1.47,1.28-.81.24-1.46.31-1.97.36-1.24.13-1.54.16-1.97,2.98-.33,2.13.3,3.9.81,5.32.24.68.46,1.28.52,1.81.29.27.4.63.3,1.01-.29,1.13-1.52,3.7-2.61,4.92-.51.57-1.09.85-1.54,1.03.1.07.19.14.28.21.3.15.59.35.92.61.74.59,1.25,1.82,1.27,3.06.02,1.05-.28,2.58-1.83,3.93-2.4,2.09-2.68,4.35-1.16,9.26,1.48,4.78-.01,9.26-4.09,12.28-3.38,2.51-14.25,3.26-25.87-1.85-2.76-1.21-5.07-2.05-7.05-2.52-.02,0-.04,0-.06.01-1.85.3-7.49,1.23-8.86,9.22-1.71,9.97-8.17,33.54-9.72,35.53-.14.18-.32.25-.49.25Zm15.62-45.47c-3.93,0-6.35,2.13-9.1,6.12-4.1,5.94-6.51,31.42-6.31,37.38,1.94-4.94,7.34-24.26,9.01-33.98.84-4.91,3.33-8.09,7.42-9.48-.35-.03-.69-.04-1.02-.04Zm27.6-23.37c1.54.79,3.6,1.92,5.15,3.23,1.93,1.63,4.91,2.66,6.94,2.41.85-.11,1.47-.43,1.83-.94.65-.92.9-1.8.74-2.62-.15-.76-.65-1.5-1.5-2.2-.6-.26-1.42-.33-3.39-.36-1.05-.02-2.52.09-4.08.21-1.88.14-3.93.29-5.7.27Zm-.82-1.03c1.88.1,4.27-.08,6.44-.24,1.58-.12,3.08-.23,4.17-.21.95.01,1.67.03,2.24.09,0,0,0,0,0,0,.07-.37.41-.48.76-.61.41-.15.98-.35,1.45-.87.95-1.06,2.05-3.33,2.36-4.4-.09-.02-.16-.06-.22-.09-.13-.07-.32-.16-.61-.22-.54-.12-1.88.05-2.27.29-2.21,1.31-4.89,2.56-7.38,3.59-2.4,1.09-4.99,2.13-6.93,2.66Zm15.46-27.08c-.16,0-.33,0-.5.01-5.64.24-8.7,2.44-9.69,4.42-.61,1.23-.52,2.52.25,3.64,1.68,2.44,4,1.17,6.85-.75.41-.27.79-.53,1.14-.74,1.69-1.03,3.96-1.41,5.51-.93.8.25,1.37.71,1.65,1.33.09.19.22.3.43.35.12.03.26.03.42.02.28-.73.38-1.69.22-2.66-.19-1.12-1.19-4.69-6.29-4.69Zm-1.96-22.59c.2.27.52.47,1,.64,1.02.35,2.06.2,2.91-.08-1.17-.05-2.23-.39-3.03-.65-.33-.11-.73-.23-.96-.27,0,.02,0,.04.01.07.02.09.04.19.07.29Zm3.81-10.72c-.08.38-.16.72-.23,1.02-.05.24-.11.49-.16.7.02-.01.03-.02.05-.04,1.19-.91,1.46-1.61,1.31-1.97-.09-.24-.36-.34-.46-.33-.11.06-.29.28-.51.61Z"/>
    <path class="cls-2" d="m65.69,158.98c-3.68,0-5.66-14.33-5.66-27.82s1.98-27.82,5.66-27.82,5.66,14.33,5.66,27.82-1.98,27.82-5.66,27.82Zm0-54.64c-1.95,0-4.66,10.2-4.66,26.82s2.71,26.82,4.66,26.82,4.66-10.2,4.66-26.82-2.71-26.82-4.66-26.82Z"/>
    <path class="cls-2" d="m134.16,110.2c-.13,0-.23-.04-.33-.13l-.22-.19.12-.57.32-.11.09.28-.03-.28c.05,0,.17-.04.36-.1,4.46-1.49,9.14-3.52,14.3-6.22.41-.22,1.83-.51,2.29-.5.98.02,1.46.26,1.64.35l-.17.43.02.03.52-.04-.22.48h-.59c-.14-.07-.46-.23-1.21-.25-.3.02-1.57.26-1.81.38-5.21,2.72-9.93,4.78-14.44,6.28-.27.09-.47.15-.63.15Zm.05-.51l.15.47-.15-.47Zm0,0h0s0,0,0,0h0Z"/>
  </g>
</svg>