<?xml version="1.0" encoding="utf-8"?>
<!-- Generator: Adobe Illustrator 27.5.0, SVG Export Plug-In . SVG Version: 6.00 Build 0)  -->
<svg version="1.1" id="Layer_1" xmlns="http://www.w3.org/2000/svg" xmlns:xlink="http://www.w3.org/1999/xlink" x="0px" y="0px"
	 viewBox="0 0 38.85 38.89" style="enable-background:new 0 0 38.85 38.89;" xml:space="preserve">
<style type="text/css">
	.st0{fill:#FFFFFF;}
</style>
<g>
	<g>
		<g>
			<path class="st0" d="M21.68,3.66c5.13,0.74,9.47,3.95,11.78,8.38c0.08,0.15,0.23,0.25,0.4,0.25h2.71c0.42,0,0.7-0.43,0.53-0.81
				c-0.95-2.14-2.3-4.12-4.01-5.83c-3.08-3.08-7.01-4.99-11.27-5.51c-0.34-0.04-0.65,0.23-0.65,0.58v2.38
				C21.18,3.38,21.39,3.62,21.68,3.66z"/>
			<path class="st0" d="M38.71,18.1c-0.02-0.3-0.27-0.54-0.58-0.54H21.76c-0.32,0-0.58,0.26-0.58,0.58v2.35
				c0,0.32,0.26,0.58,0.58,0.58h12.72c0.36,0,0.63,0.32,0.57,0.67c-1.06,6.84-6.51,12.24-13.37,13.23c-0.29,0.04-0.5,0.28-0.5,0.57
				v2.38c0,0.35,0.3,0.62,0.65,0.58c4.25-0.52,8.19-2.44,11.27-5.51c3.65-3.65,5.66-8.51,5.66-13.67
				C38.75,18.91,38.74,18.5,38.71,18.1z"/>
			<path class="st0" d="M17.02,0.13C12.76,0.66,8.83,2.57,5.75,5.65C2.09,9.3,0.08,14.17,0.09,19.34c0.01,5.19,2.11,10.17,5.82,13.8
				c3.05,2.99,6.92,4.84,11.1,5.36c0.35,0.04,0.66-0.22,0.66-0.58v-2.38c0-0.29-0.21-0.53-0.5-0.57
				C10.3,33.98,4.85,28.58,3.79,21.74c-0.05-0.35,0.22-0.67,0.57-0.67h5.74c0.32,0,0.58-0.26,0.58-0.58v-2.35
				c0-0.32-0.26-0.58-0.58-0.58H4.37c-0.36,0-0.63-0.32-0.57-0.67C4.85,10.05,10.3,4.65,17.16,3.66c0.29-0.04,0.5-0.28,0.5-0.57
				V0.71C17.66,0.36,17.36,0.09,17.02,0.13z"/>
		</g>
	</g>
</g>
</svg>
