<svg width="797" height="153" viewBox="0 0 797 153" fill="none" xmlns="http://www.w3.org/2000/svg">
<path d="M144.466 48.1571C146.128 48.1571 147.254 46.4416 146.557 44.9405C142.803 36.4703 137.441 28.6433 130.684 21.8886C118.511 9.66565 102.906 2.10675 86.0681 0.0159955C84.7275 -0.144832 83.4941 0.927352 83.4941 2.32119V11.7564C83.4941 12.8822 84.3521 13.8472 85.4783 14.008C105.802 16.9029 123.016 29.6619 132.132 47.1921C132.454 47.7818 133.044 48.1571 133.741 48.1571H144.466Z" fill="white"/>
<path d="M85.7999 69.011C84.5129 69.011 83.4941 70.0296 83.4941 71.3162V80.6442C83.4941 81.9308 84.5129 82.9494 85.7999 82.9494H136.154C137.548 82.9494 138.621 84.236 138.406 85.6298C134.223 112.703 112.612 134.093 85.4246 138.006C84.2984 138.167 83.4404 139.132 83.4404 140.258V149.693C83.4404 151.087 84.6202 152.159 86.0144 151.998C102.853 149.907 118.458 142.348 130.63 130.179C145.109 115.705 153.046 96.5125 153.046 76.0338C153.046 74.4255 152.992 72.8172 152.885 71.209C152.831 70.0296 151.812 69.0646 150.579 69.0646H85.6927L85.7999 69.011Z" fill="white"/>
<path d="M0.000268182 76.0875C0.000268182 96.6198 8.36577 116.348 23.059 130.715C35.1246 142.509 50.4614 149.907 67.0315 151.945C68.4257 152.105 69.6055 151.033 69.6055 149.639V140.204C69.6055 139.078 68.7475 138.113 67.6214 137.953C40.4335 134.039 18.8763 112.649 14.6935 85.5763C14.479 84.1825 15.5515 82.9495 16.9458 82.9495H39.6828C40.9697 82.9495 41.9886 81.9309 41.9886 80.6443V71.3163C41.9886 70.0296 40.9697 69.0111 39.6828 69.0111H16.9458C15.5515 69.0111 14.479 67.7781 14.6935 66.3842C18.8763 39.3116 40.4871 17.9215 67.6214 14.008C68.7475 13.8472 69.6055 12.8822 69.6055 11.7564V2.32119C69.6055 0.927352 68.4257 -0.144832 67.0315 0.0159955C50.1932 2.10675 34.5884 9.66566 22.4155 21.8349C7.93677 36.3094 -0.0533568 55.5551 0.000268182 76.0339V76.0875Z" fill="white"/>
<path d="M197 112.608C195.895 112.608 195 111.713 195 110.608V40.848C195 39.7434 195.895 38.848 197 38.848H205.103C205.806 38.848 206.458 39.2173 206.819 39.8207L236.96 90.1725C237.622 91.2786 236.825 92.6844 235.536 92.6844V92.6844C234.252 92.6844 233.454 91.2892 234.106 90.1829L263.749 39.8333C264.109 39.2228 264.764 38.848 265.473 38.848H273.569C274.673 38.848 275.568 39.7416 275.569 40.8451L275.67 110.605C275.671 111.711 274.775 112.608 273.67 112.608H264.735C263.632 112.608 262.738 111.715 262.735 110.612L262.635 60.1924C262.634 59.6422 263.08 59.1956 263.63 59.1956V59.1956C264.404 59.1956 264.881 60.0402 264.483 60.7032L238.94 103.161C238.579 103.762 237.928 104.13 237.227 104.13H233.437C232.74 104.13 232.093 103.767 231.73 103.173L205.921 60.9342C205.456 60.1727 206.004 59.1956 206.896 59.1956V59.1956C207.527 59.1956 208.039 59.7072 208.039 60.3383V110.608C208.039 111.713 207.144 112.608 206.039 112.608H197Z" fill="white"/>
<path d="M280.019 112.608C279.969 112.608 279.936 112.557 279.956 112.511L312.562 40.1322C312.885 39.4149 313.599 38.9537 314.386 38.9537H325.265C326.051 38.9537 326.764 39.4139 327.088 40.13L358.567 109.784C359.165 111.108 358.197 112.608 356.744 112.608H346.85C346.05 112.608 345.327 112.131 345.012 111.397L318.103 48.6948C317.588 47.4952 318.468 46.1601 319.774 46.1601V46.1601C321.078 46.1601 321.958 47.4932 321.445 48.6926L294.637 111.394C294.322 112.13 293.598 112.608 292.798 112.608H280.019V112.608ZM295.284 95.5455C295.232 95.5455 295.196 95.4944 295.213 95.4454L298.422 86.1868C298.701 85.3817 299.459 84.8418 300.312 84.8418H337.324C338.176 84.8418 338.934 85.3817 339.213 86.1868L341.537 92.8905C341.988 94.1898 341.023 95.5455 339.648 95.5455H295.284V95.5455Z" fill="white"/>
<path d="M363.872 112.608V40.9537C363.872 39.8491 364.767 38.9537 365.872 38.9537H394.19C400.763 38.9537 406.275 40.0134 411.045 42.133C415.71 44.2525 419.314 47.3259 421.858 51.1411C424.402 55.0622 425.674 59.7252 425.674 65.1301C425.674 70.5349 424.402 75.1979 421.858 79.1191C419.314 83.0402 415.71 86.0076 411.045 88.0211C406.381 90.0347 400.763 91.0945 394.19 91.0945H375.731C374.12 91.0945 373.307 89.1536 374.436 88.0053V88.0053C375.575 86.8465 377.547 87.6533 377.547 89.2785V110.502C377.547 111.606 376.651 112.502 375.547 112.502H363.978C363.919 112.502 363.872 112.549 363.872 112.608V112.608ZM377.653 86.2195C377.653 86.2575 377.606 86.2758 377.58 86.2481L374.434 82.8861C373.322 81.6977 374.165 79.7549 375.792 79.7549H393.66C399.702 79.7549 404.261 78.4832 407.335 75.8337C410.409 73.1843 411.893 69.5811 411.893 65.0241C411.893 60.467 410.409 56.7578 407.335 54.2144C404.261 51.6709 399.702 50.3992 393.66 50.3992H375.764C374.126 50.3992 373.265 48.4564 374.365 47.2428V47.2428C375.526 45.9632 377.653 46.7838 377.653 48.511V86.2195V86.2195ZM413.254 112.608C412.601 112.608 411.989 112.289 411.614 111.753L395.751 89.047C394.825 87.7213 395.774 85.9016 397.391 85.9016H407.144C407.795 85.9016 408.406 86.2188 408.78 86.7518L424.734 109.458C425.665 110.783 424.717 112.608 423.097 112.608H413.254Z" fill="white"/>
<path d="M433.201 40.848C433.201 39.7434 434.096 38.848 435.201 38.848H444.876C445.98 38.848 446.876 39.7434 446.876 40.848V110.502C446.876 111.607 445.98 112.502 444.876 112.502H435.201C434.096 112.502 433.201 111.607 433.201 110.502V40.848ZM445.465 95.2279C445.483 95.2279 445.497 95.2131 445.496 95.1955L444.795 79.8727C444.77 79.3241 444.971 78.7893 445.352 78.3937L482.753 39.5664C483.13 39.175 483.65 38.9539 484.193 38.9539H494.085C495.838 38.9539 496.742 41.0484 495.541 42.3247L466.593 73.0786L458.961 81.3448L445.443 95.1752C445.424 95.1948 445.438 95.2279 445.465 95.2279V95.2279ZM485.547 112.608C484.956 112.608 484.395 112.347 484.015 111.894L457.537 80.3482C456.895 79.5831 456.916 78.4616 457.586 77.7208L463.858 70.786C464.682 69.875 466.125 69.9152 466.897 70.8706L497.99 109.351C499.047 110.659 498.116 112.608 496.435 112.608H485.547Z" fill="white"/>
<path d="M518.432 99.0566C518.432 100.161 519.327 101.057 520.432 101.057H557.987C559.092 101.057 559.987 101.952 559.987 103.057V110.502C559.987 111.607 559.092 112.502 557.987 112.502H506.651C505.546 112.502 504.651 111.607 504.651 110.502V40.848C504.651 39.7434 505.546 38.848 506.651 38.848H556.503C557.608 38.848 558.503 39.7434 558.503 40.848V48.2935C558.503 49.3981 557.608 50.2935 556.503 50.2935H520.432C519.327 50.2935 518.432 51.1889 518.432 52.2935V99.0566ZM517.372 71.4754C517.372 70.3708 518.267 69.4754 519.372 69.4754H552.051C553.155 69.4754 554.051 70.3708 554.051 71.4754V78.7089C554.051 79.8135 553.155 80.7089 552.051 80.7089H519.372C518.267 80.7089 517.372 79.8135 517.372 78.7089V71.4754Z" fill="white"/>
<path d="M590.609 112.608C589.504 112.608 588.609 111.713 588.609 110.608V52.3995C588.609 51.2949 587.714 50.3995 586.609 50.3995H566.121C565.017 50.3995 564.121 49.5041 564.121 48.3995V40.848C564.121 39.7434 565.017 38.848 566.121 38.848H624.666C625.771 38.848 626.666 39.7434 626.666 40.848V48.3995C626.666 49.5041 625.771 50.3995 624.666 50.3995H604.284C603.18 50.3995 602.284 51.2949 602.284 52.3995V110.608C602.284 111.713 601.389 112.608 600.284 112.608H590.609Z" fill="white"/>
<path d="M643.429 38.848H633.754C632.65 38.848 631.754 39.7434 631.754 40.848V110.502C631.754 111.607 632.65 112.502 633.754 112.502H643.429C644.534 112.502 645.429 111.607 645.429 110.502V40.848C645.429 39.7434 644.534 38.848 643.429 38.848Z" fill="white"/>
<path d="M656.122 112.608C655.018 112.608 654.122 111.713 654.122 110.608V40.848C654.122 39.7434 655.018 38.848 656.122 38.848H664.408C665.01 38.848 665.579 39.1189 665.959 39.5857L709.221 92.754C710.165 93.9148 709.339 95.6518 707.843 95.6518V95.6518C706.862 95.6518 706.066 94.8564 706.066 93.8752V40.848C706.066 39.7434 706.962 38.848 708.066 38.848H717.635C718.74 38.848 719.635 39.7434 719.635 40.848V110.608C719.635 111.713 718.74 112.608 717.635 112.608H709.348C708.747 112.608 708.178 112.338 707.798 111.872L664.48 58.7565C663.517 57.5749 664.357 55.8043 665.882 55.8043V55.8043C666.881 55.8043 667.691 56.6142 667.691 57.6132V110.608C667.691 111.713 666.796 112.608 665.691 112.608H656.122Z" fill="white"/>
<path d="M766.173 113.721C766.173 113.691 766.149 113.668 766.12 113.668C760.416 113.662 755.133 112.708 750.272 110.912C745.501 109.111 741.261 106.461 737.657 103.07C734.053 99.6787 731.296 95.6516 729.388 90.9886C727.374 86.3256 726.42 81.3447 726.42 75.8339C726.42 70.3231 727.374 65.3421 729.388 60.6791C731.402 56.0161 734.159 51.989 737.763 48.5977C741.367 45.2065 745.607 42.557 750.484 40.7554C755.36 38.9538 760.661 38 766.385 38C772.64 38 778.258 39.0598 783.346 41.0733C787.725 42.843 791.531 45.3492 794.763 48.5922C795.515 49.3467 795.473 50.5628 794.714 51.3113L788.895 57.0575C788.112 57.83 786.857 57.8205 786.033 57.0927C783.562 54.9104 780.894 53.2445 778.152 52.095C774.76 50.7173 771.155 50.0814 767.127 50.0814C763.099 50.0814 759.707 50.7173 756.42 51.989C753.134 53.2607 750.272 55.0624 747.94 57.3939C745.501 59.7254 743.699 62.4808 742.427 65.5541C741.155 68.7334 740.519 72.2307 740.519 75.9399C740.519 79.6491 741.155 83.1463 742.427 86.2196C743.699 89.399 745.607 92.1544 747.94 94.4859C750.272 96.8174 753.134 98.619 756.314 99.8907C759.495 101.162 763.099 101.798 767.021 101.798C770.731 101.798 774.23 101.162 777.622 100.103C780.41 99.1445 783.127 97.6851 785.713 95.6658C786.634 94.9469 787.98 95.0697 788.687 95.9993L793.936 102.899C794.591 103.761 794.445 104.993 793.565 105.625C790.085 108.123 786.068 110.062 781.65 111.442C776.579 113.027 771.507 113.769 766.226 113.774C766.197 113.774 766.173 113.75 766.173 113.721V113.721ZM783.798 102.674C782.81 102.537 782.074 101.691 782.074 100.693V76.8801C782.074 75.7755 782.97 74.8801 784.074 74.8801H793.007C794.112 74.8801 795.007 75.7755 795.007 76.8801V101.938C795.007 103.152 793.934 104.086 792.731 103.919L783.798 102.674Z" fill="white"/>
</svg>
